<svg xmlns="http://www.w3.org/2000/svg" version="1.0" width="484.000000pt" height="600.000000pt" viewBox="0 0 484.000000 600.000000" preserveAspectRatio="xMidYMid meet">

<g transform="translate(0.000000,600.000000) scale(0.100000,-0.100000)" fill="#2b1d1b" stroke="none">
<path d="M1820 5914 c0 -9 17 -30 37 -47 60 -52 77 -72 105 -126 43 -84 36 -94 -123 -176 -132 -69 -210 -112 -258 -144 -13 -9 -34 -23 -46 -31 -13 -8 -61 -48 -109 -88 -50 -43 -91 -70 -98 -66 -6 4 -8 3 -4 -4 3 -6 -5 -27 -19 -47 -34 -51 -95 -262 -95 -330 0 -29 -23 -80 -43 -92 -14 -9 -43 -91 -52 -148 -12 -73 -26 -104 -56 -122 -30 -19 -94 -92 -173 -197 -52 -68 -62 -111 -51 -220 13 -134 19 -120 -60 -129 -185 -22 -269 -39 -374 -76 -118 -42 -129 -47 -118 -58 4 -3 37 6 73 21 37 15 94 33 128 41 33 7 80 18 103 24 23 6 88 13 145 15 l105 4 10 -28 c9 -23 7 -31 -8 -44 -11 -9 -19 -12 -19 -6 0 5 4 12 10 15 5 3 10 12 10 18 0 8 -4 7 -9 -2 -5 -8 -17 -16 -26 -17 -9 -1 -20 -6 -23 -10 -4 -4 1 -4 11 -1 9 4 17 2 17 -3 0 -6 -5 -10 -11 -10 -6 0 -8 -9 -4 -20 10 -33 -5 -43 -27 -18 -18 21 -20 22 -16 3 3 -18 -4 -21 -72 -26 -41 -3 -95 -11 -120 -18 -51 -14 -133 -62 -169 -98 -13 -13 -29 -22 -35 -20 -6 2 -17 -9 -26 -24 -8 -15 -26 -41 -39 -58 -13 -17 -25 -47 -27 -68 -2 -21 -8 -58 -13 -83 l-10 -45 2 42 c2 24 -1 39 -6 34 -5 -5 -9 -20 -9 -32 -1 -40 14 -152 22 -175 6 -16 3 -27 -11 -43 -22 -23 -14 -53 15 -57 9 -1 14 2 10 7 -3 5 -10 7 -15 4 -5 -4 -9 4 -8 17 0 13 3 17 6 11 2 -7 10 -13 16 -13 8 0 7 4 -1 12 -15 15 -16 32 -1 23 7 -5 8 7 3 40 -4 29 -3 46 3 42 7 -5 25 25 82 137 2 5 -1 6 -7 2 -21 -12 -5 50 23 92 15 23 24 46 19 53 -4 7 -3 10 3 6 11 -7 36 18 46 46 4 10 11 15 17 12 5 -3 10 -1 10 5 0 7 7 10 15 6 8 -3 15 -1 15 4 0 6 5 10 11 10 6 0 1 -12 -10 -26 -37 -46 -23 -45 21 1 41 43 75 64 47 28 -9 -11 -4 -10 15 5 29 22 49 22 40 -2 -3 -8 -1 -17 5 -21 6 -3 11 -2 11 3 0 13 72 62 82 56 10 -6 11 -71 1 -77 -18 -10 -64 -17 -60 -10 3 5 -3 9 -14 9 -10 0 -19 -4 -19 -8 0 -5 -24 -19 -52 -32 -29 -13 -74 -46 -100 -72 -39 -40 -50 -59 -58 -103 -12 -66 -12 -84 1 -51 l10 25 14 -25 c13 -24 13 -23 8 17 -4 34 -2 44 16 60 12 10 41 36 65 59 25 23 61 45 83 51 35 9 40 7 56 -13 11 -15 23 -21 34 -17 12 5 14 3 8 -7 -5 -8 -4 -11 3 -6 24 15 -1 41 -35 37 -7 -1 -13 3 -13 9 0 5 11 10 25 10 14 0 25 -6 25 -12 0 -9 3 -9 8 -3 4 6 18 12 32 13 16 1 20 -2 12 -7 -7 -4 -10 -16 -7 -27 4 -13 2 -11 -8 5 -18 30 -31 12 -16 -22 11 -25 23 -28 48 -13 10 7 12 6 6 -4 -5 -8 -3 -11 6 -8 8 3 20 15 26 29 7 13 13 18 13 11 0 -7 -18 -49 -41 -93 l-40 -81 -51 6 c-27 4 -60 12 -71 18 -21 11 -21 10 -7 -8 8 -10 18 -21 22 -24 9 -7 -40 -62 -51 -56 -5 4 -7 -4 -4 -15 6 -21 7 -21 20 -4 7 11 13 23 13 29 0 5 3 7 6 3 8 -7 34 17 34 32 0 17 17 13 24 -5 8 -20 -2 -37 -16 -28 -6 4 -6 -1 1 -14 16 -29 14 -37 -6 -21 -15 13 -15 12 -4 -10 9 -17 15 -20 21 -11 4 7 10 8 13 4 3 -5 -1 -15 -9 -21 -10 -10 -16 -9 -28 9 -9 12 -16 18 -16 12 0 -5 6 -16 12 -22 10 -10 10 -14 0 -21 -7 -4 -10 -15 -6 -24 9 -26 26 -20 18 6 -3 12 -3 19 1 15 9 -8 27 8 44 40 15 27 27 28 34 2 3 -11 0 -18 -7 -17 -6 1 -10 -6 -10 -15 1 -10 -4 -18 -11 -18 -10 0 -13 -12 -10 -42 3 -37 2 -40 -7 -20 -6 12 -15 22 -21 22 -5 0 -4 -7 3 -15 17 -20 7 -29 -22 -19 -22 8 -29 9 -55 12 -6 1 -32 18 -57 37 -25 19 -46 31 -46 26 0 -24 24 -68 48 -89 15 -12 45 -38 67 -57 22 -19 51 -43 65 -54 23 -17 23 -21 11 -45 -8 -14 -19 -26 -24 -26 -6 0 -2 10 9 23 l19 22 -21 -18 c-12 -10 -21 -29 -21 -42 0 -28 7 -31 25 -13 22 22 36 -5 23 -43 -13 -39 -14 -59 -1 -39 5 8 10 10 10 5 0 -14 -42 -50 -55 -47 -5 1 -2 -4 8 -11 21 -17 22 -31 2 -23 -8 3 -15 1 -15 -4 0 -6 -5 -10 -11 -10 -6 0 -8 7 -5 17 4 10 4 14 0 10 -4 -4 -14 -1 -22 6 -13 10 -15 9 -9 -11 5 -23 5 -23 -13 -7 -12 11 -20 13 -25 6 -11 -18 -21 -12 -41 24 -12 23 -22 31 -28 25 -14 -14 -26 -12 -26 4 0 15 -37 32 -47 22 -4 -3 -12 -1 -20 5 -17 15 -16 -1 2 -25 8 -11 15 -24 15 -29 0 -14 -24 16 -44 56 -11 20 -21 35 -24 32 -3 -2 0 -10 5 -17 15 -20 23 -48 14 -48 -5 0 -18 20 -30 45 -23 50 -31 57 -25 23 3 -17 1 -15 -10 7 -9 17 -15 25 -16 19 0 -6 -7 -11 -15 -11 -9 0 -14 6 -11 14 3 8 2 12 -3 9 -11 -7 -53 49 -71 94 -17 44 -31 61 -24 29 5 -22 2 -20 -26 11 -53 59 -81 116 -91 184 -8 59 -6 79 26 201 36 139 81 265 116 322 29 46 1 32 -34 -17 -25 -36 -63 -140 -88 -245 -5 -22 -13 -49 -18 -60 -18 -42 -41 -133 -41 -162 0 -35 48 -156 87 -220 54 -87 147 -206 209 -267 55 -54 72 -64 147 -89 47 -15 90 -34 97 -42 6 -7 25 -17 41 -20 16 -4 29 -11 29 -16 0 -5 -14 -34 -30 -64 -16 -30 -30 -57 -30 -59 0 -3 17 4 38 14 34 17 37 17 41 2 2 -9 8 -20 13 -23 7 -4 0 -21 -16 -41 -29 -39 -33 -53 -11 -45 29 12 26 -15 -9 -74 -20 -33 -36 -63 -36 -67 0 -3 -16 -21 -36 -39 -42 -38 -39 -41 11 -13 44 25 45 25 45 -2 0 -22 1 -21 25 7 13 17 24 25 25 19 0 -6 -7 -17 -15 -24 -8 -7 -13 -16 -10 -20 2 -4 -7 -18 -20 -30 -14 -13 -25 -28 -25 -34 0 -6 -9 -22 -20 -36 -11 -14 -20 -32 -20 -40 0 -8 -14 -29 -32 -47 -17 -18 -29 -35 -26 -39 6 -5 11 -3 77 29 l33 17 -21 -35 c-12 -20 -21 -39 -21 -43 0 -4 5 1 11 11 5 9 15 17 21 17 28 0 -29 -104 -109 -200 -21 -25 -30 -39 -20 -31 9 7 17 10 17 5 -1 -14 -23 -39 -52 -58 -16 -10 -28 -22 -28 -25 0 -12 69 -30 76 -20 3 5 13 5 25 -1 11 -6 24 -8 29 -5 14 9 12 -19 -2 -33 -9 -9 -9 -12 -1 -12 7 0 15 5 18 10 3 5 11 10 17 10 6 0 1 -11 -12 -25 l-24 -25 32 4 c27 3 30 1 21 -11 -7 -7 -9 -17 -5 -21 4 -4 16 4 26 18 11 14 20 20 20 15 0 -6 -5 -16 -12 -23 -6 -6 -8 -15 -4 -19 4 -4 18 6 32 22 l25 30 -15 -30 c-8 -16 -41 -64 -74 -105 -66 -82 -74 -105 -16 -44 23 24 39 34 41 27 8 -22 32 -14 47 15 8 15 15 21 16 13 0 -7 -11 -26 -25 -43 -26 -30 -36 -63 -13 -40 7 7 16 12 21 12 4 0 -13 -27 -38 -61 -26 -33 -45 -62 -42 -65 3 -3 14 7 25 21 12 15 26 24 31 21 5 -4 18 2 28 11 10 10 29 27 42 38 l24 20 -12 -22 c-6 -12 -11 -30 -10 -40 0 -16 2 -15 16 4 8 13 21 23 28 23 8 0 15 6 18 13 2 6 8 9 12 5 3 -3 -3 -19 -14 -35 -11 -15 -32 -55 -46 -88 -16 -40 -19 -52 -7 -36 48 68 48 57 2 -39 -28 -58 -42 -94 -31 -80 11 14 21 29 21 34 0 14 169 276 178 276 3 0 -36 -74 -86 -160 -9 -17 -2 -12 21 12 65 71 47 38 -42 -79 -50 -65 -87 -120 -85 -123 3 -3 15 9 27 25 31 44 119 136 125 131 2 -3 -4 -17 -15 -33 -12 -18 -20 -50 -22 -88 -2 -33 -12 -81 -22 -108 -10 -26 -19 -51 -19 -54 0 -11 43 32 61 62 11 17 19 23 19 15 1 -9 6 -5 15 10 9 16 15 20 16 10 1 -8 5 -1 9 15 7 28 8 29 10 5 2 -21 4 -19 16 15 l14 40 -5 -40 c-2 -22 -7 -53 -11 -70 -6 -29 -6 -29 10 -10 21 27 22 -2 1 -29 -8 -11 -15 -25 -15 -30 0 -6 4 -5 9 2 6 10 10 7 15 -12 3 -14 10 -26 15 -26 4 0 2 -24 -6 -53 -16 -63 -12 -97 6 -44 7 20 17 37 23 37 15 0 55 45 64 72 3 13 20 38 35 56 33 38 38 33 9 -8 -11 -16 -17 -35 -14 -44 4 -9 -4 -30 -18 -49 -36 -47 -44 -62 -29 -52 7 4 22 21 33 39 l20 31 -5 -37 c-4 -27 -2 -38 10 -42 15 -6 15 -29 -2 -70 -6 -14 -5 -17 4 -12 6 4 19 2 28 -6 15 -12 16 -10 9 15 -4 16 -4 38 0 50 7 22 7 22 15 2 4 -11 8 -39 8 -62 1 -24 6 -43 12 -43 6 0 8 -9 3 -22 -7 -23 -6 -23 14 -5 11 11 24 36 27 58 8 44 25 62 25 27 1 -19 3 -18 16 11 21 48 27 33 9 -24 -8 -27 -13 -50 -11 -52 1 -1 13 15 25 38 38 66 35 37 -4 -49 -21 -44 -35 -87 -32 -94 3 -8 8 -4 15 12 24 59 103 193 97 165 -3 -16 -7 -41 -9 -55 -1 -14 -10 -39 -19 -57 -19 -36 -22 -57 -7 -48 6 4 7 -2 1 -17 -5 -13 -11 -48 -15 -78 -5 -47 -4 -51 5 -25 6 17 19 49 30 72 10 24 19 54 19 68 0 15 4 24 9 20 12 -7 22 9 43 70 18 51 17 35 -4 -68 -7 -36 -15 -53 -20 -45 -6 10 -8 10 -8 1 0 -7 9 -17 20 -23 12 -6 20 -21 21 -38 0 -25 2 -24 18 13 10 22 21 57 25 78 4 20 11 37 15 37 9 0 2 -39 -14 -90 -7 -22 -6 -23 8 -12 8 7 18 24 21 37 4 14 11 24 17 22 7 -1 14 4 17 12 3 9 0 11 -8 6 -9 -5 -11 -4 -6 3 12 20 29 13 23 -9 -3 -12 -3 -36 1 -53 6 -29 7 -28 19 24 l12 55 -5 -75 c-5 -70 -4 -74 11 -55 10 12 15 32 12 50 -2 17 -1 41 4 55 5 19 8 10 10 -35 1 -40 4 -49 6 -27 4 33 5 33 24 16 13 -12 19 -31 20 -63 l1 -46 12 33 12 34 38 -36 c20 -20 41 -36 46 -36 16 0 108 -94 112 -114 4 -24 28 -34 28 -11 0 9 4 14 9 11 5 -3 12 6 16 21 6 26 8 24 26 -27 28 -81 29 -83 34 -78 2 2 -2 26 -10 53 -17 56 -18 68 -6 61 5 -3 14 -25 20 -48 6 -24 15 -50 21 -58 14 -21 12 -9 -5 40 -8 23 -14 52 -13 65 2 19 5 21 19 12 16 -10 59 -133 59 -169 0 -10 5 -18 11 -18 6 0 8 8 4 19 -7 22 -25 129 -25 149 0 6 5 12 10 12 6 0 10 -6 10 -14 0 -8 6 -14 13 -13 35 1 44 -6 54 -40 l10 -38 2 43 c1 29 5 42 15 42 15 0 19 -10 31 -67 10 -48 29 -42 22 7 -3 27 -1 43 9 51 12 9 14 5 14 -23 0 -18 9 -51 20 -73 11 -22 20 -47 20 -57 0 -10 5 -18 11 -18 7 0 8 7 3 17 -4 10 -10 46 -13 81 -6 61 -6 62 11 40 10 -13 21 -41 26 -63 6 -32 12 -40 31 -41 19 -1 22 2 17 20 -13 42 -18 113 -10 119 5 3 20 -17 33 -43 14 -27 29 -46 34 -43 5 3 6 -4 2 -18 -5 -19 -4 -21 4 -9 9 12 11 11 11 -7 0 -12 5 -25 10 -28 12 -7 13 19 2 43 -4 9 -5 35 -1 57 6 40 6 40 8 -12 1 -62 16 -71 19 -13 2 22 7 51 11 63 8 21 9 21 15 -8 3 -16 2 -46 -4 -65 -14 -49 -11 -61 6 -25 l15 30 -4 -32 c-2 -18 0 -30 5 -27 5 3 5 -20 2 -52 -5 -42 -4 -55 4 -50 7 4 12 23 12 41 0 35 28 105 41 105 4 0 13 25 19 55 13 63 23 74 14 15 -5 -28 -2 -47 10 -64 9 -14 16 -32 16 -41 0 -8 4 -15 10 -15 5 0 7 13 4 30 -4 19 -2 30 5 30 6 0 11 -9 11 -21 0 -11 4 -18 9 -15 9 6 21 62 22 103 1 14 6 20 15 16 7 -3 12 -10 11 -16 -1 -6 7 -11 18 -12 17 0 20 -6 17 -40 l-3 -40 15 29 c9 15 16 44 16 63 0 22 4 32 11 27 7 -4 9 -21 5 -46 -4 -26 -3 -37 4 -33 5 3 10 21 10 38 0 18 3 43 7 57 l7 25 6 -29 c5 -27 6 -28 21 -13 9 9 19 13 23 10 3 -4 6 3 6 15 0 12 2 22 5 22 13 0 45 -42 45 -58 0 -10 7 -27 15 -38 8 -10 15 -27 15 -36 0 -10 4 -18 10 -18 5 0 11 45 12 103 3 88 4 96 12 60 5 -24 13 -43 18 -43 5 0 7 10 4 23 -4 15 -2 13 6 -5 7 -16 17 -28 24 -28 6 0 15 -17 20 -37 l7 -38 8 45 c4 25 8 64 8 87 1 36 4 42 22 40 24 -2 43 -35 53 -90 4 -21 11 -35 15 -33 8 5 23 90 23 131 0 30 19 75 29 69 5 -3 9 -17 9 -32 1 -25 2 -26 14 -9 12 16 14 15 24 -10 6 -16 14 -41 18 -56 13 -55 16 -16 4 50 -12 65 -19 93 -35 138 -4 11 8 -1 28 -28 19 -26 38 -63 41 -82 4 -19 12 -37 17 -41 7 -4 9 0 5 12 -3 11 -7 36 -10 56 -2 21 -7 42 -11 48 -3 5 -2 10 3 10 4 0 18 -21 29 -47 24 -53 23 -55 26 55 0 23 5 42 9 42 4 0 8 10 8 23 1 22 1 22 16 2 8 -11 19 -20 25 -20 5 0 14 -6 18 -14 6 -9 8 1 7 28 -3 55 8 60 24 11 7 -22 17 -40 22 -40 11 0 10 7 -3 31 -6 11 -8 25 -6 32 3 7 10 -3 17 -20 7 -18 16 -33 21 -33 10 0 -16 71 -43 115 -10 17 -18 37 -18 45 1 11 4 9 12 -5 18 -31 100 -112 92 -91 -6 16 -4 18 13 14 19 -5 19 -4 7 51 -19 79 -16 94 6 37 10 -26 21 -50 24 -53 8 -8 -2 79 -13 116 -16 54 -8 46 23 -20 27 -59 54 -73 41 -21 l-6 26 21 -19 21 -19 -6 29 c-4 17 -13 47 -21 69 -18 47 -12 57 12 19 10 -15 21 -30 25 -33 3 -3 13 -18 22 -35 9 -16 16 -24 17 -16 0 10 7 7 25 -9 30 -28 31 -22 5 30 -11 22 -16 40 -11 40 5 0 14 -14 21 -30 7 -17 17 -33 21 -36 5 -3 2 11 -8 30 -13 29 -14 39 -4 49 12 12 48 -21 119 -109 13 -17 19 -20 13 -9 -37 80 -54 147 -56 224 l-2 84 24 -47 24 -48 19 37 c18 36 18 37 -1 70 l-20 33 20 -5 c28 -7 26 0 -11 44 -21 23 -27 34 -15 30 18 -7 24 7 7 18 -5 3 -10 12 -10 20 0 8 21 -8 46 -35 59 -64 76 -64 31 -2 -19 27 -40 59 -47 73 -11 20 -7 19 23 -9 53 -51 52 -17 -1 44 -25 28 -46 60 -47 70 -1 11 -5 30 -9 44 -6 18 0 13 20 -16 28 -40 95 -104 108 -104 4 0 -6 17 -22 38 -30 38 -40 86 -21 98 6 4 3 12 -10 20 -21 15 -19 37 5 61 10 10 14 10 18 0 3 -6 3 3 0 20 -3 21 -1 33 5 33 6 0 11 -6 11 -14 0 -17 39 -48 52 -40 4 3 1 16 -8 29 -9 13 -13 32 -10 42 4 13 -3 23 -24 35 -17 9 -30 24 -30 33 0 15 1 15 16 1 8 -9 25 -21 37 -28 19 -10 20 -9 9 4 -10 12 -8 20 9 42 20 25 20 28 5 51 -12 18 -13 25 -4 25 9 0 9 3 0 12 -18 18 -14 36 10 44 20 6 20 7 3 16 -16 9 -15 12 11 34 31 25 50 31 38 12 -5 -7 -2 -9 8 -5 9 3 25 -1 37 -9 15 -11 21 -12 21 -3 0 8 5 7 18 -3 23 -20 77 -29 193 -31 80 -2 96 0 91 12 -4 11 2 13 28 8 19 -4 38 -3 46 4 7 6 32 9 54 6 22 -2 40 -1 40 4 0 5 18 20 40 34 22 14 42 36 46 49 3 14 12 27 19 30 8 3 17 22 20 43 13 79 28 138 37 144 6 4 6 14 -1 27 -6 11 -11 41 -11 67 0 45 -30 127 -50 140 -6 4 -8 11 -5 16 4 5 -1 9 -9 9 -8 0 -23 14 -33 31 -12 20 -24 29 -35 25 -10 -2 -16 0 -13 5 3 4 -7 11 -22 15 -15 3 -37 9 -48 12 -11 3 -42 5 -70 4 -36 -2 -46 0 -35 8 9 6 10 10 3 10 -6 0 -18 -6 -25 -13 -7 -7 -25 -17 -39 -24 -22 -9 -26 -17 -22 -40 4 -22 2 -25 -6 -13 -6 9 -11 10 -11 3 0 -6 -3 -19 -6 -28 -5 -11 -2 -15 7 -13 8 2 16 -1 17 -7 1 -5 -8 -11 -22 -13 -13 -2 -30 -10 -36 -18 -17 -19 -44 -18 -36 2 3 9 6 17 6 19 0 2 10 1 21 -2 19 -5 20 -4 10 16 -10 18 -9 21 7 21 12 0 23 10 27 23 4 12 8 25 10 30 1 4 3 11 4 16 0 5 12 12 26 15 l25 6 -20 22 c-19 21 -21 21 -55 5 -42 -20 -181 -24 -187 -6 -3 9 -10 9 -27 -1 -32 -16 -115 -5 -107 16 3 9 -1 14 -12 14 -22 1 -62 30 -41 31 8 0 4 5 -8 11 -34 16 -28 31 10 23 l32 -6 -27 23 c-33 28 -36 48 -8 48 11 0 20 5 20 10 0 6 15 10 34 10 87 0 268 92 347 177 49 52 116 154 125 189 3 16 17 67 30 113 26 92 32 207 13 288 -16 72 -50 187 -59 198 -4 6 -13 27 -20 48 -31 97 -115 211 -165 223 -26 6 -22 0 32 -46 53 -45 67 -64 93 -129 17 -42 41 -96 52 -120 32 -72 53 -179 53 -276 -1 -120 -44 -289 -87 -337 -28 -31 -29 -32 -24 -8 5 25 5 25 -12 5 -10 -11 -26 -27 -37 -35 -17 -13 -18 -13 -10 0 5 8 -8 0 -28 -17 -21 -18 -42 -33 -48 -33 -6 0 -8 -4 -5 -8 10 -17 -11 -30 -84 -52 -56 -17 -70 -25 -55 -30 17 -6 15 -8 -12 -12 -33 -5 -34 -1 -4 37 9 11 1 7 -17 -9 -34 -32 -44 -26 -15 8 14 17 13 16 -9 -2 -16 -15 -28 -20 -32 -13 -5 7 -13 7 -26 -2 -24 -14 -25 -23 -6 -30 10 -4 13 -1 9 9 -3 8 1 14 11 14 20 0 21 -14 1 -30 -12 -10 -18 -10 -30 0 -11 10 -18 9 -30 -4 -23 -23 -37 -20 -30 7 4 15 3 18 -3 8 -8 -11 -13 -10 -29 6 -29 29 -53 81 -53 115 0 22 5 28 23 29 17 0 15 3 -12 13 -28 10 -31 14 -17 19 24 10 28 9 20 -4 -10 -16 35 -1 65 22 13 10 27 16 32 13 5 -3 9 0 9 5 0 15 -6 14 -42 -5 -25 -13 -32 -13 -39 -3 -11 19 20 51 44 45 19 -5 104 52 120 80 6 11 1 10 -27 -1 -19 -8 -50 -13 -68 -11 -18 2 -38 4 -44 5 -18 2 -26 33 -12 42 7 4 10 10 8 13 -3 2 -16 -4 -30 -16 -14 -11 -19 -17 -12 -13 6 3 12 1 12 -4 0 -14 -1 -14 -58 0 -84 21 -93 41 -27 60 25 7 45 19 45 26 0 7 5 13 10 13 6 0 10 7 10 16 0 8 5 12 10 9 6 -3 10 -2 10 4 0 6 12 17 28 25 15 8 21 15 14 16 -7 0 -10 5 -6 11 4 8 -3 9 -26 4 -23 -5 -35 -3 -41 6 -6 10 -9 10 -9 2 0 -7 -7 -10 -17 -6 -11 4 -14 3 -9 -5 5 -8 1 -10 -10 -5 -12 4 -15 3 -10 -5 5 -8 1 -9 -16 -3 -13 4 -24 13 -24 20 -3 24 -5 25 -14 11 -8 -12 -10 -12 -10 -1 0 12 26 46 83 110 l22 24 -22 -5 c-34 -9 -28 1 9 14 28 10 30 12 12 19 -13 5 -15 8 -3 8 17 1 89 51 72 51 -6 0 -16 -7 -23 -15 -9 -11 -16 -13 -24 -5 -5 5 -19 10 -30 11 -15 0 -13 3 9 10 16 4 53 8 82 7 l53 -2 -33 -34 c-17 -19 -27 -33 -22 -30 37 15 65 33 65 41 0 6 8 3 18 -6 9 -9 26 -14 37 -12 13 2 31 -9 53 -33 l33 -37 -15 32 c-21 42 -78 87 -128 103 -24 7 -93 12 -162 11 -120 -1 -155 6 -142 28 4 6 2 9 -6 6 -9 -3 -14 4 -15 22 -1 22 1 24 8 10 13 -22 39 -22 39 1 1 15 2 15 16 -3 15 -19 15 -19 9 8 -4 16 -3 27 3 27 5 0 12 -10 15 -22 5 -19 8 -20 23 -8 10 9 12 16 5 18 -6 2 -11 11 -11 20 1 13 6 10 21 -10 21 -29 51 -28 43 0 -5 15 -4 15 9 -1 11 -14 20 -15 39 -8 18 7 29 6 37 -2 10 -9 10 -6 3 13 -8 22 -7 26 8 27 11 1 20 -7 24 -20 5 -21 5 -21 -9 -3 -8 11 -15 15 -15 9 0 -20 25 -33 40 -20 10 9 11 9 6 0 -4 -8 3 -15 21 -19 15 -4 33 -10 38 -14 6 -4 17 -6 26 -5 10 2 22 -8 28 -22 7 -14 14 -23 18 -20 3 4 0 13 -7 22 -7 8 -8 15 -2 15 5 0 15 -13 22 -30 7 -16 16 -30 21 -30 13 0 11 7 -8 37 -10 15 -13 24 -6 20 6 -4 15 -3 18 3 5 8 11 7 21 -1 14 -11 96 -175 109 -216 9 -32 23 -28 17 5 -2 15 -2 25 1 22 3 -3 10 -32 16 -64 9 -51 9 -62 -6 -78 -9 -10 -23 -18 -30 -18 -8 0 -26 -9 -40 -20 -32 -25 -27 -25 21 0 22 10 43 17 49 13 6 -3 7 -1 3 5 -4 7 -2 12 4 12 10 0 11 -56 1 -75 -10 -18 -11 -45 -2 -45 17 0 24 35 29 141 4 100 3 110 -23 167 -15 34 -36 69 -46 78 -11 9 -19 24 -19 31 0 24 -86 96 -157 132 -57 30 -78 35 -162 39 -92 5 -94 6 -61 18 19 7 29 13 22 13 -8 1 -28 -5 -45 -13 -18 -8 -65 -16 -104 -18 -72 -4 -73 -3 -75 22 0 14 -2 38 -3 53 -2 23 1 28 16 24 11 -3 17 -2 14 3 -9 14 28 22 135 27 58 2 112 7 120 10 31 12 226 9 268 -3 54 -17 55 -3 0 22 -37 16 -69 18 -298 19 -190 0 -261 3 -272 12 -8 7 -18 10 -21 7 -3 -3 1 18 9 47 21 80 18 155 -11 239 -14 40 -25 83 -25 94 0 16 -3 17 -12 8 -10 -10 -9 -26 5 -75 35 -125 39 -143 34 -189 -2 -27 -14 -62 -27 -80 -23 -34 -107 -104 -115 -96 -3 2 9 20 25 39 36 42 39 61 4 28 l-27 -24 17 32 c27 53 18 59 -20 15 -19 -23 -40 -42 -46 -42 -6 0 1 9 16 21 14 11 26 30 26 41 0 18 -3 17 -29 -11 -16 -17 -32 -31 -37 -31 -4 0 1 9 11 20 11 13 14 20 6 20 -8 0 -7 5 3 16 23 22 20 27 -10 20 -25 -7 -25 -6 -10 16 9 12 16 29 16 38 0 8 -10 -4 -22 -27 -12 -24 -26 -43 -30 -43 -5 0 -6 5 -3 10 10 16 -11 12 -50 -10 -45 -25 -53 -25 -31 -1 10 11 16 27 14 35 -2 12 -14 8 -55 -21 -29 -20 -56 -34 -59 -30 -3 3 8 13 24 21 17 9 34 22 38 28 6 10 4 10 -8 0 -13 -10 -17 -10 -20 0 -3 8 -19 4 -54 -16 -44 -24 -35 -9 12 21 17 10 16 11 -6 6 l-25 -5 28 26 c15 14 24 26 18 26 -5 0 -13 -4 -16 -10 -3 -5 -14 -10 -24 -10 -10 0 -24 -7 -32 -16 -8 -10 -21 -13 -37 -9 -15 4 -21 2 -17 -4 3 -6 0 -8 -8 -5 -8 3 -18 1 -22 -5 -10 -17 -28 -13 -21 5 6 17 -1 14 -49 -21 -48 -35 -62 -41 -42 -18 27 31 2 40 -34 14 -16 -12 -33 -20 -38 -17 -5 3 -17 -4 -27 -15 -10 -11 -23 -18 -30 -15 -7 3 -15 -3 -19 -12 -6 -15 -8 -15 -15 3 -8 19 -9 19 -9 -1 -1 -22 -36 -40 -47 -23 -11 18 -25 9 -19 -12 6 -18 4 -20 -17 -14 -12 4 -32 15 -42 24 -18 15 -18 15 -6 -8 11 -21 10 -23 -3 -18 -12 4 -14 2 -10 -10 4 -10 2 -14 -4 -10 -6 4 -13 3 -15 -3 -1 -5 -18 4 -35 21 -32 29 -38 27 -33 -15 2 -19 1 -19 -25 -2 -18 12 -30 15 -34 7 -4 -7 -17 -4 -36 9 -45 30 -54 24 -15 -10 47 -40 28 -38 -26 3 -42 31 -64 64 -64 92 0 8 -4 15 -10 15 -15 0 -12 -16 9 -59 l20 -38 -22 4 c-26 5 -51 37 -61 77 -6 23 -4 27 8 23 11 -5 13 1 9 26 -5 36 31 120 67 152 28 25 35 14 9 -18 -11 -15 -18 -31 -15 -35 3 -5 1 -23 -3 -40 -14 -48 10 -30 38 29 24 50 56 80 98 93 19 6 22 4 16 -11 -3 -10 -18 -31 -33 -48 -50 -55 -69 -90 -59 -106 5 -8 9 -9 9 -2 0 33 206 157 330 198 30 10 82 36 115 57 33 21 76 45 95 54 19 9 69 33 110 54 75 38 121 53 214 72 79 15 186 24 186 15 0 -4 11 -12 25 -17 16 -6 36 -32 57 -72 21 -41 33 -57 36 -46 9 44 -78 150 -144 175 -8 3 -14 13 -14 22 0 10 -7 26 -15 37 -8 10 -15 28 -15 40 0 11 -6 40 -14 65 -7 24 -26 87 -41 139 -33 113 -60 175 -128 295 -49 87 -132 192 -147 188 -5 -1 -13 11 -20 27 -7 16 -16 27 -20 25 -5 -3 -39 12 -77 32 -74 41 -156 73 -186 73 -11 0 -45 11 -76 24 -89 38 -228 70 -363 82 -43 4 -78 10 -78 14 0 4 16 21 35 39 19 17 35 36 35 41 0 16 -88 -42 -101 -67 -7 -13 -14 -21 -16 -20 -5 6 26 75 37 82 6 3 19 25 30 48 l20 42 -21 -25 c-12 -14 -35 -49 -52 -79 -28 -50 -32 -53 -40 -33 -7 16 -4 35 12 73 28 68 21 74 -10 9 -13 -27 -27 -50 -30 -50 -12 0 -29 62 -29 107 0 51 -21 56 -31 7 -6 -25 -7 -23 -9 16 -2 42 -3 43 -10 15 -4 -16 -8 -52 -9 -79 l-1 -49 -36 39 c-19 21 -48 53 -63 70 -16 17 -40 34 -55 38 -33 8 -96 46 -96 57 0 5 -4 9 -10 9 -5 0 -10 -7 -10 -16z m317 -176 c-3 -7 -5 -2 -5 12 0 14 2 19 5 13 2 -7 2 -19 0 -25z m23 -72 c0 -39 -6 -31 -14 19 -5 29 -4 36 3 25 6 -8 11 -28 11 -44z m-850 -550 c0 -3 -4 -8 -10 -11 -5 -3 -10 -1 -10 4 0 6 5 11 10 11 6 0 10 -2 10 -4z m-86 -603 c10 -10 79 -33 101 -33 28 0 132 -51 207 -100 121 -81 250 -140 359 -165 57 -13 118 -30 134 -39 38 -20 55 -20 55 -1 0 26 27 17 82 -28 77 -62 83 -65 63 -28 -9 17 -13 36 -10 41 3 5 0 12 -6 16 -8 5 -9 3 -4 -6 5 -8 4 -11 -3 -6 -6 4 -9 12 -6 19 2 7 -11 30 -30 52 -35 40 -32 64 7 44 20 -11 64 -79 59 -93 -6 -18 10 -47 24 -42 8 3 14 0 14 -6 0 -6 7 -19 15 -28 12 -13 13 -23 5 -44 -5 -15 -10 -40 -10 -56 0 -16 -3 -35 -6 -44 -10 -26 -24 -18 -24 15 0 20 -4 28 -12 23 -7 -4 -8 -3 -4 4 10 16 -18 66 -48 86 -26 17 -36 10 -15 -11 18 -18 2 -140 -22 -164 -25 -25 -42 -24 -34 1 9 30 -7 24 -45 -15 -37 -38 -66 -49 -33 -12 11 12 25 32 32 44 9 18 8 20 -7 16 -10 -2 -31 -15 -47 -29 -26 -22 -46 -29 -70 -24 -5 1 -34 2 -62 2 -29 0 -53 1 -53 2 0 2 6 16 14 32 8 16 17 40 20 54 3 14 -5 3 -18 -24 -32 -64 -50 -82 -41 -41 l6 30 -16 -28 c-11 -19 -22 -27 -32 -23 -8 3 -19 6 -24 6 -6 0 -8 4 -5 9 4 5 -3 7 -14 4 -23 -6 -27 15 -7 37 6 8 2 6 -10 -3 -20 -18 -23 -18 -55 -1 -18 10 -36 17 -40 16 -3 -1 -14 15 -23 35 l-17 36 -17 -22 c-14 -19 -19 -20 -29 -9 -7 9 -8 19 -2 28 16 25 11 34 -9 16 -21 -19 -31 -16 -69 18 -18 16 -25 18 -31 7 -6 -9 -16 -11 -32 -5 -13 4 -30 8 -37 8 -7 1 -17 8 -22 16 -7 11 -10 12 -10 2 0 -7 7 -20 15 -28 8 -9 15 -22 15 -31 0 -13 -4 -13 -27 2 -15 10 -28 14 -30 8 -2 -6 -20 -2 -43 9 -42 21 -84 18 -62 -4 7 -7 12 -16 12 -20 0 -15 -18 -8 -49 18 -29 24 -32 25 -48 9 -16 -16 -16 -18 0 -27 9 -5 17 -13 17 -18 0 -13 -47 -13 -55 0 -3 6 -11 10 -16 10 -6 0 -8 -4 -4 -10 3 -5 -13 -14 -36 -20 -33 -9 -44 -9 -50 2 -6 9 -9 7 -9 -9 0 -14 -5 -21 -13 -18 -16 7 -44 110 -53 193 -5 55 -3 70 17 108 23 46 178 219 187 210 3 -3 -1 -14 -8 -23 -8 -10 4 -1 25 20 33 30 47 37 81 37 22 0 44 -3 48 -7z m-3 -460 c13 -16 12 -17 -3 -4 -10 7 -18 15 -18 17 0 8 8 3 21 -13z m1989 -113 c0 -5 -2 -10 -4 -10 -3 0 -8 5 -11 10 -3 6 -1 10 4 10 6 0 11 -4 11 -10z m-1887 -20 c-3 -11 -7 -20 -9 -20 -2 0 -4 9 -4 20 0 11 4 20 9 20 5 0 7 -9 4 -20z m-60 -40 c-3 -11 -7 -20 -9 -20 -2 0 -4 9 -4 20 0 11 4 20 9 20 5 0 7 -9 4 -20z m1164 -16 c64 -23 77 -33 113 -80 22 -30 43 -54 46 -54 3 0 3 18 -1 40 -4 22 -4 40 0 40 3 0 23 -9 44 -19 45 -23 87 -76 111 -138 15 -39 15 -52 4 -100 -7 -30 -21 -64 -31 -75 -18 -20 -65 -48 -80 -48 -11 0 13 21 39 34 19 9 23 21 26 61 2 49 1 51 -38 75 -23 14 -40 32 -40 42 0 10 -4 18 -10 18 -5 0 -10 -9 -10 -19 0 -10 -11 -29 -25 -42 -26 -25 -33 -49 -13 -49 6 0 3 -9 -7 -20 -10 -11 -13 -20 -7 -20 6 0 12 6 15 13 2 6 8 9 12 5 12 -11 -49 -66 -81 -74 -16 -4 -37 -13 -46 -21 -13 -12 -36 -14 -93 -11 -74 3 -97 -8 -44 -23 24 -7 24 -7 1 -8 -33 -1 -82 26 -83 47 0 14 -2 14 -9 -3 -7 -19 -8 -19 -17 5 -20 50 -23 55 -19 28 2 -16 1 -28 -1 -28 -20 0 -68 38 -88 70 -14 22 -29 40 -34 40 -5 0 -17 7 -26 16 -14 15 -15 12 -10 -26 3 -26 1 -39 -5 -35 -6 3 -10 12 -10 19 0 7 -11 23 -24 35 l-24 22 -24 -23 c-22 -22 -26 -23 -56 -11 -31 13 -42 36 -22 48 6 3 10 21 10 40 0 19 5 37 10 40 6 4 7 11 4 17 -4 6 -2 8 3 5 6 -4 17 3 26 16 29 45 83 99 112 114 l30 14 -31 -28 c-18 -15 -40 -41 -50 -58 -16 -25 -17 -28 -3 -23 14 5 16 0 11 -39 -3 -33 -2 -44 7 -39 6 4 11 21 11 38 0 49 60 124 135 167 82 47 172 49 292 5z m1133 6 c-8 -5 -19 -10 -25 -10 -5 0 -3 5 5 10 8 5 20 10 25 10 6 0 3 -5 -5 -10z m-334 -26 c-22 -15 -36 -18 -36 -6 0 9 43 30 50 24 3 -2 -4 -10 -14 -18z m-71 6 c3 -5 -1 -10 -10 -10 -9 0 -13 5 -10 10 3 6 8 10 10 10 2 0 7 -4 10 -10z m282 4 c-3 -3 -12 -4 -19 -1 -8 3 -5 6 6 6 11 1 17 -2 13 -5z m-1694 -11 c-7 -2 -19 -2 -25 0 -7 3 -2 5 12 5 14 0 19 -2 13 -5z m1085 0 c-15 -2 -42 -2 -60 0 -18 2 -6 4 27 4 33 0 48 -2 33 -4z m274 -19 c-2 -13 -8 -24 -13 -24 -5 0 -9 -7 -9 -15 0 -8 -15 -24 -32 -36 -33 -20 -103 -22 -153 -4 -19 6 -19 6 -2 -8 39 -32 182 -29 202 3 3 6 15 15 27 21 24 13 19 0 -16 -40 -26 -29 -5 -19 50 26 23 18 45 33 49 33 5 0 0 -7 -11 -16 -18 -15 -18 -15 0 -10 16 6 17 4 6 -9 -7 -8 -9 -15 -4 -15 4 0 -1 -7 -12 -15 -16 -13 -14 -13 19 1 56 22 67 12 21 -21 -51 -38 -64 -50 -39 -38 32 16 77 25 71 14 -3 -5 5 -4 19 2 14 7 25 15 25 20 0 4 5 7 11 7 8 0 8 -4 0 -14 -7 -8 -8 -16 -4 -18 4 -3 3 -3 -4 -2 -6 2 -17 -3 -23 -11 -9 -11 -7 -12 7 -9 10 2 31 -4 48 -15 29 -20 29 -20 5 -19 -14 1 -30 5 -35 9 -16 12 -52 7 -52 -6 0 -7 12 -11 29 -9 15 2 28 0 28 -5 0 -4 10 -13 23 -19 17 -8 18 -11 5 -11 -34 -2 -18 -21 16 -21 19 0 38 -4 41 -10 3 -5 -1 -10 -9 -10 -27 0 -18 -15 29 -49 46 -33 60 -50 26 -31 -32 17 -38 11 -11 -11 22 -18 22 -19 3 -10 -12 6 -26 11 -30 10 -22 -4 -43 2 -57 16 -19 19 -96 55 -116 54 -8 0 -4 -6 10 -12 14 -7 45 -25 70 -42 25 -16 50 -29 55 -30 6 0 23 -8 38 -19 26 -17 27 -20 11 -37 -9 -10 -23 -15 -31 -12 -12 5 -14 1 -9 -14 4 -14 1 -23 -8 -26 -11 -4 -13 -1 -10 11 5 15 4 15 -6 -1 -8 -13 -8 -21 2 -31 118 -124 270 -430 239 -483 -10 -17 -10 -17 -11 2 -1 11 -4 14 -7 8 -5 -15 -69 -18 -77 -4 -4 5 -28 12 -55 16 -54 7 -98 -7 -166 -53 -90 -61 -127 -109 -43 -56 75 48 165 84 209 84 42 0 147 -40 183 -69 11 -9 16 -10 12 -3 -8 13 -5 15 18 6 32 -12 56 -70 64 -153 8 -85 3 -101 -31 -101 -16 0 -17 3 -7 15 7 8 9 15 5 15 -4 0 -2 7 5 15 18 21 9 26 -15 9 -16 -12 -17 -17 -7 -23 11 -6 9 -9 -6 -13 -16 -5 -18 -1 -14 16 3 11 12 32 21 45 18 29 21 59 6 65 -7 2 -10 -6 -7 -23 4 -32 -23 -69 -56 -74 -13 -2 -27 -9 -32 -17 -12 -20 -61 -5 -54 18 5 14 3 14 -10 -2 -9 -11 -19 -16 -23 -13 -4 4 -1 13 5 19 7 7 12 19 12 28 0 8 -9 1 -21 -17 -12 -18 -25 -33 -31 -33 -5 0 -6 6 -2 12 5 7 -5 3 -20 -10 -43 -33 -46 -27 -14 34 15 31 28 71 27 88 -1 28 -2 27 -9 -11 -10 -47 -36 -103 -49 -103 -5 0 -12 6 -15 13 -4 8 -5 7 -5 -3 3 -37 -2 -50 -23 -61 -22 -11 -22 -11 -8 6 14 17 14 17 -18 1 -32 -17 -33 -17 -23 2 10 19 4 62 -9 62 -4 0 -12 12 -19 26 -6 15 -15 24 -18 20 -4 -3 3 -20 15 -36 l22 -30 -24 -37 c-14 -21 -39 -54 -55 -73 -25 -29 -29 -31 -24 -12 3 13 1 22 -6 22 -6 0 -11 -3 -11 -7 0 -5 -10 -19 -21 -33 -19 -23 -20 -23 -14 -3 7 25 -3 73 -16 73 -4 0 -7 -18 -6 -40 1 -27 -5 -46 -16 -58 -17 -16 -18 -16 -11 3 7 18 6 19 -10 5 -10 -8 -24 -15 -30 -16 -22 -3 -97 -54 -103 -69 -3 -8 -11 -15 -19 -15 -7 0 -18 -8 -24 -17 -9 -16 -10 -15 -5 5 9 30 -6 28 -40 -8 -19 -20 -42 -31 -71 -36 -27 -4 -41 -10 -37 -17 4 -7 -15 -8 -60 -4 -42 4 -69 2 -73 -4 -4 -8 -10 -7 -17 0 -6 6 -22 11 -35 11 -45 0 -191 43 -184 54 4 6 7 15 7 21 0 5 21 13 46 16 25 4 54 11 65 17 10 5 73 35 139 67 66 31 134 64 150 72 17 9 47 25 68 35 20 10 37 22 37 27 0 5 8 11 18 15 9 3 29 14 43 23 15 10 51 33 80 51 30 17 68 44 84 58 27 23 27 24 5 13 -14 -6 -37 -20 -51 -30 -14 -10 -29 -16 -32 -13 -3 4 -42 -19 -85 -50 -44 -31 -84 -56 -89 -56 -5 0 -19 -11 -32 -24 -12 -12 -41 -29 -64 -35 -23 -7 -49 -17 -57 -22 -8 -5 -29 -15 -46 -23 -17 -8 -35 -19 -38 -25 -4 -6 -14 -11 -23 -11 -8 0 -26 -9 -40 -20 -14 -11 -33 -20 -42 -20 -9 0 -27 -9 -41 -20 -17 -13 -28 -15 -37 -9 -12 11 -88 -22 -95 -41 -4 -13 -57 -15 -158 -3 -47 5 -112 6 -145 3 -33 -4 -58 -8 -55 -9 8 -2 170 -21 225 -26 279 -26 562 -139 540 -217 -5 -18 -4 -19 4 -7 9 15 0 59 -22 99 -5 8 3 2 16 -14 18 -20 26 -24 30 -15 3 8 6 4 6 -8 1 -13 6 -23 12 -23 6 0 9 7 5 15 -8 22 7 18 34 -7 13 -13 31 -23 38 -23 9 0 16 -13 18 -34 3 -19 7 -37 10 -40 4 -3 4 7 2 22 -7 34 13 31 23 -4 6 -21 7 -22 10 -4 1 11 1 29 0 40 -1 16 4 13 29 -15 27 -30 30 -32 24 -11 -4 16 -3 21 5 17 6 -4 11 -14 11 -22 0 -8 5 -13 11 -12 6 2 18 -13 25 -32 13 -33 14 -33 9 -5 -3 17 -8 39 -11 50 -5 16 0 14 20 -9 26 -29 37 -84 14 -70 -8 5 -9 2 -3 -12 4 -10 8 -27 9 -36 0 -13 3 -14 14 -6 7 6 13 28 12 47 -3 70 -2 75 17 60 9 -8 25 -27 36 -44 17 -27 18 -21 1 20 -3 8 -1 15 5 15 15 0 24 -42 19 -94 -4 -59 17 -40 25 22 4 35 1 48 -20 75 -14 18 -6 12 18 -13 25 -27 40 -37 36 -25 -7 20 -7 20 8 1 15 -19 15 -19 16 5 0 22 1 23 9 4 21 -48 1 -169 -27 -170 -5 -1 -17 -6 -28 -11 -11 -6 -33 -14 -50 -18 l-30 -7 23 21 c32 31 27 46 -7 17 -23 -19 -36 -23 -62 -18 -33 5 -33 6 -6 9 15 2 27 8 27 14 0 6 -21 8 -57 4 -45 -4 -54 -3 -39 5 15 9 16 13 5 20 -23 14 -66 10 -73 -7 -5 -13 -9 -14 -22 -4 -12 11 -12 15 -2 21 9 6 9 9 1 9 -6 0 -20 3 -30 6 -15 5 -16 4 -3 -6 26 -20 -79 -1 -135 24 -27 13 -67 26 -87 30 -21 4 -38 11 -38 16 0 4 -18 11 -40 15 -22 4 -40 11 -40 17 0 6 -9 8 -20 5 -20 -5 -46 16 -37 30 3 4 -15 8 -39 8 -39 0 -112 24 -75 25 17 0 84 41 77 47 -2 3 -15 -3 -29 -12 -29 -18 -70 -28 -62 -14 4 5 11 7 16 4 5 -4 9 0 9 8 0 8 9 26 21 41 32 41 8 30 -31 -14 -35 -40 -35 -40 -80 -29 -25 6 -52 13 -60 16 -8 3 -28 7 -44 8 -16 2 -31 7 -35 11 -3 5 -24 10 -46 11 -22 1 -62 4 -90 6 -27 2 -69 4 -93 5 -31 1 -41 5 -36 15 6 10 4 10 -7 0 -16 -15 -33 -17 -24 -3 9 14 -7 12 -28 -4 -9 -7 -44 -14 -76 -15 -32 0 -80 -6 -107 -12 -27 -5 -64 -12 -82 -13 -17 -2 -35 -6 -39 -9 -3 -4 -25 -7 -48 -7 -26 0 -48 -6 -55 -15 -7 -8 -25 -15 -41 -15 -16 0 -29 -5 -29 -11 0 -6 7 -9 15 -5 8 3 15 3 15 1 0 -10 -74 -35 -102 -35 -16 0 -27 -4 -24 -9 7 -11 -75 -24 -97 -15 -9 3 -17 10 -17 15 0 5 -9 9 -20 9 -10 0 -24 10 -30 23 -10 20 -10 20 3 5 24 -31 30 -20 8 16 -21 34 -21 34 -3 82 12 29 28 51 41 55 14 6 21 4 22 -4 0 -7 4 -2 9 11 12 27 40 29 40 2 0 -11 4 -20 9 -20 5 0 7 9 4 19 -3 12 3 26 16 37 35 31 27 47 -14 30 -20 -9 -42 -13 -51 -9 -8 3 -30 -5 -47 -17 l-32 -23 28 31 c21 22 27 36 22 52 -7 21 -7 21 -28 3 -18 -15 -18 -13 3 12 13 17 33 38 44 48 11 10 16 21 10 25 -5 4 -15 15 -23 25 -11 14 -11 20 0 34 12 14 12 16 0 8 -10 -5 -12 -4 -7 3 14 24 -5 32 -39 18 -18 -8 -36 -12 -39 -9 -3 4 -16 -2 -28 -13 l-23 -19 19 23 c11 12 25 21 31 19 5 -3 29 16 53 40 23 25 35 43 26 39 -24 -9 -48 13 -33 31 10 11 14 11 20 1 4 -7 12 -9 16 -4 4 5 2 11 -5 13 -10 4 -6 14 15 36 15 16 22 27 16 23 -7 -4 -13 -3 -13 3 0 5 6 12 13 15 6 3 1 4 -13 3 -14 -1 -24 -6 -22 -10 1 -4 -4 -14 -12 -23 -8 -8 -13 -21 -10 -28 3 -8 -4 -16 -20 -20 -33 -8 -33 -32 0 -40 26 -7 29 -26 4 -34 -8 -3 -10 0 -5 8 4 7 -6 3 -23 -10 -17 -12 -35 -19 -42 -15 -9 5 -10 2 -6 -13 4 -11 2 -23 -3 -27 -7 -4 -8 1 -4 11 5 14 3 16 -12 10 -18 -6 -18 -6 -2 11 10 12 14 28 11 43 -4 18 -3 21 4 12 5 -8 13 -14 18 -15 5 -1 8 -5 7 -8 -1 -3 5 -6 13 -6 18 0 18 2 -2 22 -15 14 -15 17 -1 33 10 10 14 27 11 39 -7 25 27 67 54 69 46 3 52 5 52 19 0 13 -4 14 -22 4 -18 -9 -20 -9 -12 0 6 7 20 14 30 15 14 3 18 10 16 27 -4 33 7 71 18 64 5 -3 12 0 16 6 5 8 3 9 -6 4 -9 -5 -10 -2 -5 14 3 11 2 21 -3 21 -5 0 -19 -26 -31 -59 -12 -32 -28 -64 -36 -71 -8 -7 -4 9 11 39 29 61 29 62 7 54 -30 -10 -44 -25 -36 -37 5 -7 0 -3 -10 8 -17 19 -17 20 0 30 20 11 42 37 43 50 0 5 -8 2 -17 -5 -16 -13 -17 -12 -4 3 7 10 17 15 22 12 5 -3 9 -2 8 3 -3 18 2 33 11 33 6 0 10 -9 10 -19 0 -11 5 -23 12 -27 7 -5 9 -2 5 8 -3 9 0 21 6 27 8 8 7 11 -6 11 -19 0 -23 15 -7 25 15 9 12 28 -11 55 l-21 25 16 -27 c18 -31 21 -48 7 -48 -26 0 -37 120 -12 128 6 2 11 8 11 14 0 6 -9 3 -20 -7 -11 -10 -20 -24 -20 -30 0 -13 -68 -31 -78 -21 -3 3 2 6 12 6 9 0 15 4 12 9 -3 5 -14 8 -24 6 -9 -1 -11 0 -4 2 7 3 10 8 7 13 -3 5 0 12 6 15 6 4 13 -2 16 -13 3 -11 13 -20 22 -19 23 1 22 37 -1 37 -22 0 -24 18 -3 26 8 4 15 10 15 15 0 5 18 26 40 46 22 21 40 42 40 47 0 5 -11 -1 -25 -14 -24 -23 -50 -21 -28 1 6 6 9 17 7 24 -3 7 0 16 6 20 6 3 10 3 9 -2 -4 -23 3 -25 17 -5 10 15 22 21 33 17 12 -5 13 -4 4 6 -10 10 -9 15 5 26 12 9 6 9 -20 -2 -21 -8 -38 -13 -38 -10 0 3 -11 -2 -25 -11 -38 -25 -50 -12 -14 15 26 19 33 21 41 10 8 -11 9 -10 4 4 -4 13 6 25 42 48 42 27 45 30 24 35 -20 6 -33 26 -15 23 25 -4 36 2 26 12 -8 8 -18 6 -37 -6 -28 -19 -35 -6 -10 19 19 19 24 19 48 1 11 -8 24 -15 30 -15 6 0 0 7 -12 16 -12 8 -22 24 -22 35 0 10 -4 19 -8 19 -5 0 -17 7 -28 15 -17 13 -16 14 21 9 22 -3 57 -12 78 -20 36 -14 37 -13 28 5 -6 10 -26 22 -44 25 -19 3 -48 19 -65 35 -32 28 -43 49 -19 35 6 -4 4 2 -5 12 -17 20 -17 20 25 18 23 -1 61 -10 84 -19 23 -9 48 -15 54 -13 7 2 -16 15 -51 28 -74 28 -154 97 -144 124 8 21 30 20 46 -3 10 -14 22 -17 48 -13 59 8 90 4 129 -18 12 -6 21 -8 21 -6 0 3 11 1 25 -4 16 -6 25 -6 25 0 0 6 -9 10 -20 10 -11 0 -20 5 -20 10 0 11 55 11 165 1 l70 -6 -65 -17 c-62 -16 -63 -16 -15 -11 50 6 66 11 118 39 33 18 46 12 26 -12 -11 -13 -4 -12 30 5 23 12 40 25 37 28 -3 3 -12 0 -21 -7 -9 -7 -18 -11 -20 -8 -5 4 53 54 84 73 20 12 3 -16 -20 -33 -10 -7 -16 -19 -13 -26 3 -7 -2 -16 -10 -19 -9 -4 -16 -12 -16 -18 0 -8 4 -8 14 1 13 10 13 7 6 -17 -5 -15 -12 -41 -15 -57 -5 -21 -9 -26 -15 -17 -6 11 -9 9 -14 -5 -4 -11 -21 -30 -39 -44 -17 -14 -27 -19 -23 -11 12 18 -32 5 -59 -18 -11 -10 -39 -26 -63 -36 -23 -10 -40 -20 -37 -23 6 -7 82 26 119 52 16 11 26 15 22 8 -11 -18 14 -15 35 4 10 9 23 14 30 12 13 -4 -44 -67 -96 -107 -19 -14 -23 -20 -11 -16 19 6 19 5 1 -15 -20 -23 -17 -24 19 -10 16 6 26 6 26 0 0 -5 11 2 25 15 26 27 46 33 41 13 -1 -7 -1 -10 1 -7 2 4 12 5 22 2 14 -3 20 3 26 24 6 26 8 27 20 10 10 -13 14 -15 18 -5 2 7 8 9 13 5 4 -4 2 -17 -5 -29 -12 -19 -11 -20 6 -13 10 5 28 8 41 8 25 -1 28 7 10 25 -9 9 -9 12 0 12 7 0 12 -4 12 -8 0 -4 13 -16 30 -25 25 -15 29 -16 24 -2 -4 9 -1 15 9 15 8 0 17 -7 21 -15 3 -8 10 -15 16 -15 6 0 8 6 4 13 -5 8 -2 7 9 -2 11 -9 15 -21 12 -35 -5 -17 -4 -18 4 -6 9 13 12 11 17 -8 4 -15 9 -19 14 -12 20 33 64 8 90 -52 9 -20 10 -18 5 12 -4 30 -3 32 7 15 6 -11 15 -23 20 -26 5 -3 2 -13 -6 -22 -21 -20 -20 -26 3 -24 11 0 18 4 15 8 -2 4 2 9 10 12 12 5 24 -15 24 -40 0 -11 27 -22 44 -17 9 2 20 -1 24 -7 5 -9 2 -10 -9 -6 -19 7 -20 2 -7 -28 7 -17 9 -17 9 -2 1 17 21 25 21 8 0 -24 43 7 70 51 17 27 34 46 39 43 5 -3 21 9 35 27 28 36 36 27 10 -12 -18 -26 84 67 120 109 19 23 20 23 34 5 14 -18 14 -18 10 2 -4 16 3 25 28 39 19 10 34 22 34 27 0 4 7 8 15 8 13 0 13 -4 -2 -27 l-18 -28 37 30 c20 17 37 38 37 48 1 10 11 22 24 27 12 5 33 19 47 29 22 18 34 19 110 12 54 -5 71 -9 45 -11 -36 -2 -33 -4 30 -16 85 -16 155 -18 155 -4 0 6 -21 10 -47 10 l-48 1 55 19 c30 11 67 20 82 20 15 0 28 5 28 11 0 18 -95 5 -116 -15 -11 -12 -24 -15 -38 -11 -12 4 -37 9 -56 12 -19 2 -51 12 -70 21 -19 9 -40 15 -47 14 -6 -1 -14 2 -18 8 -3 5 -15 10 -26 10 -10 0 -19 5 -19 11 0 8 23 10 78 5 96 -8 133 9 41 19 -91 10 -133 22 -154 46 -22 23 -31 23 86 -1 47 -10 61 -10 85 4 29 15 28 15 -41 16 -60 0 -76 4 -110 27 -30 21 -36 28 -22 31 26 5 21 18 -20 43 l-37 23 29 7 c28 8 65 -4 65 -21 0 -12 54 -40 77 -40 15 0 16 2 3 10 -11 8 -8 10 15 8 24 -3 33 3 53 34 19 28 31 36 52 36 22 -1 26 -5 22 -24z m178 21 c0 -2 -10 -10 -22 -16 -21 -11 -22 -11 -9 4 13 16 31 23 31 12z m-2065 -50 c37 -45 37 -45 8 -33 -34 14 -53 36 -53 60 0 10 2 18 4 18 2 0 20 -20 41 -45z m685 31 c0 -2 -8 -10 -17 -17 -16 -13 -17 -12 -4 4 13 16 21 21 21 13z m1373 -27 c-18 -11 -38 -19 -45 -16 -7 2 3 11 22 20 50 22 60 20 23 -4z m420 -6 c5 -26 4 -26 -9 -8 -16 22 -18 35 -5 35 5 0 11 -12 14 -27z m-2814 -14 c-16 -10 -23 -4 -14 10 3 6 11 8 17 5 6 -4 5 -9 -3 -15z m445 -19 c-6 12 -4 13 7 3 7 -7 24 -13 39 -14 15 -1 8 -5 -20 -10 -59 -12 -72 -9 -76 18 -3 17 0 21 13 16 12 -5 14 -3 9 8 -4 8 2 3 14 -11 12 -14 18 -18 14 -10z m219 5 c10 -26 82 -55 119 -48 40 7 70 22 83 40 11 15 65 9 65 -7 0 -4 -26 -21 -57 -38 -77 -40 -139 -39 -208 3 -65 40 -68 54 -14 64 4 0 9 -6 12 -14z m1737 5 c-20 -13 -33 -13 -25 0 3 6 14 10 23 10 15 0 15 -2 2 -10z m-1997 -67 c7 -11 11 -10 24 2 11 12 18 13 29 5 7 -7 23 -9 36 -5 15 4 12 0 -10 -12 -45 -26 -105 -19 -123 14 -10 18 -18 23 -36 18 -31 -7 -54 6 -27 15 22 8 95 -17 107 -37z m-633 -28 c-7 -9 -15 -13 -17 -11 -7 7 7 26 19 26 6 0 6 -6 -2 -15z m3485 5 c3 -6 -1 -7 -9 -4 -18 7 -21 14 -7 14 6 0 13 -4 16 -10z m-3348 -22 c-3 -8 -6 -5 -6 6 -1 11 2 17 5 13 3 -3 4 -12 1 -19z m183 -23 c-28 -40 -50 -57 -50 -38 0 7 71 83 78 83 1 0 -11 -20 -28 -45z m-200 15 c0 -5 -9 -14 -20 -20 -17 -9 -20 -8 -20 8 0 11 8 18 20 19 11 1 20 -2 20 -7z m56 -5 c-3 -8 0 -15 6 -15 32 0 -13 -18 -55 -23 -41 -4 -45 -3 -30 8 10 7 21 11 25 9 5 -3 8 -1 8 5 0 6 7 8 15 4 9 -3 15 -2 14 3 -3 17 1 24 12 24 6 0 9 -7 5 -15z m3475 -116 c11 -22 18 -46 16 -52 -2 -7 -14 11 -27 38 -13 28 -26 54 -28 59 -3 5 1 6 7 2 6 -4 20 -25 32 -47z m-226 11 c3 -5 -1 -10 -10 -10 -9 0 -13 5 -10 10 3 6 8 10 10 10 2 0 7 -4 10 -10z m-3729 -52 c-34 -52 -62 -131 -52 -146 3 -5 -4 -21 -15 -38 -26 -40 -24 -13 6 75 24 72 73 161 88 161 4 0 -8 -24 -27 -52z m1613 -20 c54 -25 54 -25 24 -31 -39 -8 -101 14 -124 44 -10 13 -19 27 -19 30 0 8 45 -8 119 -43z m1741 42 c0 -5 -2 -10 -4 -10 -3 0 -8 5 -11 10 -3 6 -1 10 4 10 6 0 11 -4 11 -10z m-2720 -33 c0 -2 -10 -12 -22 -23 l-23 -19 19 23 c18 21 26 27 26 19z m2781 -6 c-7 -5 -11 -13 -7 -19 3 -6 1 -14 -5 -18 -7 -4 -9 -3 -5 4 3 6 1 14 -5 18 -12 7 6 24 26 24 6 0 4 -4 -4 -9z m-1969 -83 c-7 -7 -12 -8 -12 -2 0 14 12 26 19 19 2 -3 -1 -11 -7 -17z m-997 -18 c-9 -16 -18 -30 -20 -30 -6 0 6 32 18 48 17 22 18 13 2 -18z m410 -8 c-3 -3 -11 0 -18 7 -9 10 -8 11 6 5 10 -3 15 -9 12 -12z m875 -2 c0 -5 -2 -10 -4 -10 -3 0 -8 5 -11 10 -3 6 -1 10 4 10 6 0 11 -4 11 -10z m515 0 c3 -5 1 -10 -4 -10 -6 0 -11 5 -11 10 0 6 2 10 4 10 3 0 8 -4 11 -10z m-1405 -20 c0 -5 -2 -10 -4 -10 -3 0 -8 5 -11 10 -3 6 -1 10 4 10 6 0 11 -4 11 -10z m2556 -108 c-6 -5 -99 94 -105 112 -2 6 22 -15 53 -48 31 -32 55 -61 52 -64z m-1636 104 c0 -11 -19 -15 -25 -6 -3 5 1 10 9 10 9 0 16 -2 16 -4z m-871 -25 c17 -11 6 -17 -44 -27 -38 -7 -39 -6 -25 11 12 15 12 17 1 10 -10 -5 -12 -4 -7 3 8 14 55 16 75 3z m-477 -57 c-7 -12 -11 -13 -17 -4 -4 7 -2 16 6 21 18 11 23 4 11 -17z m-53 7 c9 -6 10 -11 2 -15 -13 -8 -31 1 -31 15 0 11 11 11 29 0z m1761 -16 c-7 -9 -15 -13 -19 -10 -3 3 1 10 9 15 21 14 24 12 10 -5z m1236 -54 c14 -11 21 -22 16 -25 -5 -3 -19 6 -30 19 -26 30 -19 32 14 6z m-2591 -22 c-4 -5 -14 -9 -24 -9 -9 0 -22 -5 -29 -12 -6 -6 -14 -9 -17 -6 -8 7 58 46 68 41 4 -2 5 -9 2 -14z m2645 -9 c0 -5 -2 -10 -4 -10 -3 0 -8 5 -11 10 -3 6 -1 10 4 10 6 0 11 -4 11 -10z m-1405 -10 c3 -5 1 -10 -4 -10 -6 0 -11 5 -11 10 0 6 2 10 4 10 3 0 8 -4 11 -10z m1570 -120 c3 -5 1 -19 -5 -30 -13 -24 -45 -28 -36 -4 5 12 1 14 -17 10 -12 -3 -16 -3 -9 0 6 3 12 10 12 15 0 6 -5 7 -12 3 -6 -4 -9 -3 -5 2 7 12 65 15 72 4z m-2815 -84 c0 -3 -4 -8 -10 -11 -5 -3 -10 -1 -10 4 0 6 5 11 10 11 6 0 10 -2 10 -4z m64 -44 c13 -25 12 -29 -7 -52 -16 -20 -19 -21 -13 -5 6 16 1 14 -23 -9 -17 -17 -41 -31 -53 -33 -12 -2 -30 -11 -40 -20 -10 -9 -18 -12 -18 -7 1 12 82 69 95 66 17 -3 37 36 23 44 -6 4 -8 3 -5 -2 3 -5 -10 -14 -28 -20 l-33 -10 31 38 c38 45 52 47 71 10z m-174 -2 c0 -5 -5 -10 -11 -10 -5 0 -7 5 -4 10 3 6 8 10 11 10 2 0 4 -4 4 -10z m2836 -21 c19 -11 32 -25 28 -30 -3 -5 6 -13 20 -19 28 -10 34 -20 14 -20 -14 1 -115 90 -103 90 4 0 23 -9 41 -21z m532 -8 c-7 -11 -18 -23 -25 -26 -7 -2 -3 9 9 25 24 33 37 34 16 1z m-489 -81 c19 -16 33 -32 30 -34 -2 -2 -21 11 -41 30 -46 42 -36 45 11 4z m-3436 -19 c-2 -6 2 -11 7 -11 6 0 10 -7 10 -15 0 -21 -17 -19 -30 4 -14 27 -13 44 3 38 6 -2 11 -10 10 -16z m657 15 c0 -2 -7 -6 -15 -10 -8 -3 -15 -1 -15 4 0 6 7 10 15 10 8 0 15 -2 15 -4z m-590 -56 c6 -11 8 -20 6 -20 -3 0 -10 9 -16 20 -6 11 -8 20 -6 20 3 0 10 -9 16 -20z m601 -17 c13 -17 13 -17 -6 -3 -11 8 -22 16 -24 17 -2 2 0 3 6 3 6 0 17 -8 24 -17z m-14 -87 c-3 -7 -16 -16 -29 -19 l-23 -6 25 19 c14 11 19 20 11 20 -11 0 -11 3 0 17 13 15 14 15 17 -1 2 -9 1 -23 -1 -30z m2824 -23 l24 -26 -27 19 c-15 10 -28 22 -28 27 0 12 5 8 31 -20z m-635 -111 c-17 -16 -18 -16 -5 5 7 12 15 20 18 17 3 -2 -3 -12 -13 -22z m617 -37 c81 -1 150 -5 153 -8 3 -3 12 -3 20 0 7 2 23 -2 36 -11 15 -11 45 -16 95 -16 59 0 73 -3 73 -16 0 -8 -4 -13 -9 -10 -12 8 -41 -4 -41 -16 0 -5 6 -6 13 -2 6 4 5 -1 -4 -12 -9 -10 -22 -45 -29 -76 -7 -32 -17 -58 -22 -58 -5 0 -6 5 -3 10 3 6 1 10 -5 10 -6 0 -14 -8 -17 -17 -4 -10 -11 -22 -17 -26 -6 -5 -2 -6 9 -2 44 16 55 17 55 6 0 -6 -17 -18 -37 -26 -29 -12 -34 -18 -23 -25 10 -6 17 -4 23 5 13 25 27 17 27 -16 0 -16 -4 -28 -9 -25 -19 12 -19 -25 0 -43 13 -12 18 -24 14 -32 -5 -8 -4 -10 3 -5 16 10 15 -7 0 -23 -8 -9 -8 -11 -2 -8 7 4 15 0 18 -9 9 -25 7 -64 -4 -64 -5 0 -10 15 -10 33 0 24 -3 28 -10 17 -8 -13 -10 -12 -10 4 0 15 -3 16 -15 6 -12 -10 -15 -10 -15 3 0 8 -7 17 -15 21 -17 6 -20 -15 -4 -31 8 -8 8 -16 0 -30 -10 -16 -11 -15 -9 7 2 16 -2 24 -9 22 -7 -1 -13 3 -13 9 0 5 -4 7 -10 4 -22 -14 -8 14 21 39 17 15 29 29 27 32 -11 10 -56 -23 -78 -57 -33 -54 -37 -41 -6 22 18 35 23 55 16 61 -5 4 -8 5 -5 1 7 -9 -26 -44 -36 -37 -4 2 -16 -8 -26 -23 -21 -34 -43 -57 -43 -47 0 4 8 16 17 26 10 11 13 19 8 18 -25 -5 -28 1 -7 16 12 8 22 26 22 40 0 28 -8 31 -26 7 -7 -10 -18 -18 -26 -18 -7 -1 -11 -7 -10 -15 2 -8 0 -12 -4 -8 -4 4 -14 2 -23 -4 -9 -7 -5 0 9 16 14 15 24 29 23 32 -5 9 10 34 20 34 5 0 2 -9 -8 -20 -23 -25 -12 -27 13 -2 12 12 15 21 8 28 -13 13 -53 -6 -76 -34 -8 -11 -28 -23 -43 -26 l-29 -7 23 32 c12 17 38 47 58 67 35 33 35 34 6 17 -49 -29 -134 -99 -135 -111 0 -13 -40 -26 -40 -14 0 5 4 11 8 14 5 3 9 22 10 42 1 20 9 46 19 58 13 15 14 17 2 8 -9 -6 -18 -10 -21 -7 -2 3 -5 -1 -5 -8 -1 -18 -38 -89 -47 -88 -4 0 -14 8 -23 18 -8 10 -12 12 -8 6 3 -7 3 -14 -2 -14 -65 -9 -73 -8 -72 9 0 10 3 12 6 4 2 -6 9 -10 13 -7 5 3 7 12 4 20 -4 8 -11 12 -16 9 -6 -4 -8 2 -3 15 7 24 -7 28 -25 6 -9 -10 -9 -15 -1 -15 6 0 11 -5 11 -11 0 -5 -4 -7 -10 -4 -5 3 -10 -1 -10 -9 0 -9 -5 -16 -11 -16 -7 0 -9 10 -5 26 5 18 3 24 -5 19 -8 -6 -8 -2 0 13 8 16 7 21 -5 26 -8 3 -17 -1 -20 -9 -3 -8 -12 -11 -21 -8 -12 5 -14 3 -8 -6 5 -10 2 -11 -12 -7 -13 4 -26 -1 -38 -14 -10 -11 -15 -20 -11 -20 4 0 4 -5 0 -12 -5 -7 -10 -4 -15 10 -5 12 -16 22 -26 22 -15 0 -16 -2 -3 -10 11 -7 12 -10 2 -10 -8 0 -16 9 -19 20 -3 11 -9 17 -14 14 -19 -11 -8 14 15 35 23 22 32 61 13 61 -5 0 -6 -9 -2 -19 4 -14 -4 -27 -30 -48 -19 -15 -35 -35 -35 -43 0 -13 -1 -13 -10 0 -6 9 -5 17 3 22 9 6 9 8 0 8 -6 0 -14 -4 -17 -9 -3 -5 -16 -7 -29 -3 -19 5 -20 3 -9 -10 9 -11 10 -18 2 -23 -5 -3 -10 1 -10 9 0 20 -4 20 -40 1 -26 -13 -29 -13 -24 0 3 8 9 14 12 13 4 -1 18 4 31 11 12 7 32 10 43 7 15 -3 18 -2 10 6 -8 8 -8 17 0 32 11 20 10 20 -9 3 -11 -9 -23 -14 -26 -10 -4 3 -7 1 -7 -5 0 -7 -15 -11 -40 -9 -45 2 -47 4 -22 24 16 14 16 14 -1 9 -10 -3 -16 -2 -13 3 7 11 56 20 56 10 0 -4 -4 -11 -10 -14 -5 -3 -10 -11 -10 -17 0 -19 39 23 60 66 l20 41 -23 -27 c-21 -26 -45 -40 -32 -19 13 21 -18 21 -41 0 -17 -16 -27 -20 -35 -12 -14 14 37 74 56 66 9 -3 15 1 15 11 0 9 4 16 8 16 5 0 14 12 21 26 6 15 14 24 18 21 3 -3 -4 -21 -16 -40 -11 -19 -17 -38 -13 -42 4 -5 1 -5 -5 -1 -16 9 -18 -20 -3 -29 9 -5 31 33 34 58 1 4 6 6 11 5 6 -2 9 -7 7 -11 -1 -5 2 -6 8 -2 6 3 8 10 6 14 -3 4 5 20 18 35 19 25 25 27 44 17 26 -14 28 -9 5 14 -13 13 -14 18 -3 25 20 13 122 11 139 -3 12 -10 14 -9 8 5 -5 14 2 18 36 22 23 3 56 8 72 10 17 2 53 1 80 -2 28 -3 116 -6 198 -7z m477 -45 c-8 -5 -22 -9 -30 -9 -10 0 -8 3 5 9 27 12 43 12 25 0z m-3269 -39 c-12 -12 -21 -18 -21 -14 0 10 33 44 37 39 3 -2 -5 -14 -16 -25z m2209 19 c0 -5 -4 -10 -10 -10 -5 0 -10 5 -10 10 0 6 5 10 10 10 6 0 10 -4 10 -10z m-2140 -82 c0 -5 -7 -8 -15 -8 -8 0 -15 -5 -15 -11 0 -6 -7 -3 -16 6 -15 15 -15 17 1 35 17 19 19 19 31 2 7 -9 14 -20 14 -24z m1870 33 c0 -5 -7 -12 -16 -15 -14 -5 -15 -4 -4 9 14 17 20 19 20 6z m1257 -36 c0 -17 -13 -20 -21 -6 -4 5 0 12 6 14 7 3 13 6 14 6 0 1 1 -6 1 -14z m180 -27 c-3 -7 -5 -2 -5 12 0 14 2 19 5 13 2 -7 2 -19 0 -25z m-96 -45 c-11 -24 -14 -26 -22 -10 -6 9 -17 17 -24 17 -20 0 -19 19 2 42 16 18 17 18 37 -1 17 -18 18 -24 7 -48z m-79 25 c-7 -7 -12 -8 -12 -2 0 14 12 26 19 19 2 -3 -1 -11 -7 -17z m-3197 -2 c-11 -8 -16 -20 -12 -29 3 -9 2 -19 -3 -22 -13 -8 -33 -46 -23 -44 20 3 25 -2 13 -16 -15 -18 -23 -57 -23 -119 0 -44 -1 -47 -13 -31 -9 13 -14 14 -14 5 0 -7 -2 -11 -5 -8 -3 3 0 33 8 67 12 51 12 59 1 50 -17 -14 -19 2 -2 19 15 15 8 15 -26 2 -39 -14 -31 -2 9 14 19 8 36 20 36 25 1 6 2 14 3 19 3 20 47 82 58 82 6 0 3 -6 -7 -14z m1970 -6 c-3 -5 -11 -10 -16 -10 -6 0 -7 5 -4 10 3 6 11 10 16 10 6 0 7 -4 4 -10z m55 -10 c0 -5 -2 -10 -4 -10 -3 0 -8 5 -11 10 -3 6 -1 10 4 10 6 0 11 -4 11 -10z m1186 -12 c4 -7 4 -10 -1 -6 -4 4 -14 3 -22 -4 -11 -8 -12 -7 -7 6 7 19 20 21 30 4z m-3276 -8 c0 -5 -5 -10 -11 -10 -5 0 -7 5 -4 10 3 6 8 10 11 10 2 0 4 -4 4 -10z m2057 -22 c-3 -7 -5 -2 -5 12 0 14 2 19 5 13 2 -7 2 -19 0 -25z m1167 15 c4 -9 2 -21 -4 -27 -7 -7 -10 -5 -10 7 0 22 -8 21 -34 0 -15 -13 -14 -10 3 10 28 31 36 33 45 10z m-1242 -15 c-3 -14 -1 -19 6 -14 6 3 13 2 16 -3 7 -10 -20 -9 -30 2 -4 3 -4 13 -1 22 9 23 16 18 9 -7z m42 6 c3 -8 2 -12 -4 -9 -6 3 -10 10 -10 16 0 14 7 11 14 -7z m1266 -4 c0 -5 -5 -10 -11 -10 -5 0 -7 5 -4 10 3 6 8 10 11 10 2 0 4 -4 4 -10z m-25 -20 c3 -5 2 -10 -4 -10 -5 0 -13 5 -16 10 -3 6 -2 10 4 10 5 0 13 -4 16 -10z m-65 -11 c0 -5 5 -7 10 -4 6 3 10 1 10 -4 0 -16 -16 -13 -30 4 -9 10 -9 15 -1 15 6 0 11 -5 11 -11z m120 -13 c0 -15 -7 -26 -20 -29 -24 -6 -25 1 -4 31 19 28 24 28 24 -2z m-3370 4 c-8 -5 -19 -10 -25 -10 -5 0 -3 5 5 10 8 5 20 10 25 10 6 0 3 -5 -5 -10z m2140 -26 c12 -19 21 -37 18 -39 -2 -2 -14 14 -26 36 -28 49 -22 52 8 3z m392 -19 c-3 -20 -7 -23 -18 -14 -20 16 -17 39 5 39 14 0 17 -6 13 -25z m744 -12 c0 -36 7 -56 19 -65 6 -5 3 -14 -9 -25 -14 -14 -17 -14 -14 -3 3 8 -1 27 -9 42 -7 16 -11 39 -7 53 8 33 19 32 20 -2z m64 2 c16 15 18 14 23 -4 3 -13 1 -18 -8 -15 -7 3 -16 -4 -20 -15 -8 -25 -18 -27 -35 -6 -11 13 -10 14 6 8 16 -6 17 -4 6 9 -7 9 -9 23 -5 34 7 17 8 17 11 -4 3 -22 5 -23 22 -7z m-995 5 c3 -5 1 -10 -4 -10 -6 0 -11 5 -11 10 0 6 2 10 4 10 3 0 8 -4 11 -10z m1055 -14 c0 -3 -4 -8 -10 -11 -5 -3 -10 -1 -10 4 0 6 5 11 10 11 6 0 10 -2 10 -4z m-660 -17 c0 -7 -25 -19 -42 -19 -7 0 -7 5 1 13 11 14 41 19 41 6z m115 -32 c12 -3 7 -5 -11 -4 -23 1 -30 5 -27 15 4 8 8 10 12 4 3 -5 15 -12 26 -15z m535 15 c0 -5 -12 -14 -26 -21 -22 -10 -24 -14 -13 -27 12 -14 14 -13 21 5 4 12 12 21 17 21 6 0 8 -7 5 -15 -4 -9 0 -15 10 -15 9 0 16 -4 16 -10 0 -5 -13 -10 -29 -10 -28 0 -29 -2 -21 -30 5 -16 7 -30 5 -30 -10 0 -50 48 -51 61 -1 8 -4 21 -6 29 -3 8 -3 11 0 7 2 -4 15 4 29 18 26 25 43 32 43 17z m-593 -8 c-3 -3 -12 -4 -19 -1 -8 3 -5 6 6 6 11 1 17 -2 13 -5z m773 -18 c0 -3 -4 -8 -10 -11 -5 -3 -10 -1 -10 4 0 6 5 11 10 11 6 0 10 -2 10 -4z m-2641 -33 l24 -28 -18 29 -17 29 32 -7 c18 -3 39 -6 47 -6 10 0 13 -6 9 -16 -5 -14 -4 -15 8 -5 11 9 16 9 22 0 5 -8 3 -9 -6 -4 -9 6 -11 4 -5 -5 6 -10 12 -8 26 8 15 19 18 20 23 5 4 -9 9 -13 13 -10 3 4 12 2 20 -4 7 -7 23 -13 36 -14 12 -1 25 -3 29 -4 4 0 10 -10 13 -21 4 -11 10 -18 15 -15 5 3 13 -3 19 -12 8 -14 9 -8 4 21 -4 28 -3 37 5 32 7 -4 12 -18 12 -32 0 -14 6 -24 14 -24 9 0 12 7 9 20 -3 11 0 20 6 20 6 0 12 -15 12 -32 2 -31 2 -31 6 -5 6 38 23 34 23 -6 0 -19 3 -36 6 -40 12 -11 34 6 34 27 1 21 1 21 15 2 15 -19 15 -19 16 5 l0 24 11 -23 c11 -22 36 -26 49 -8 4 5 14 -4 23 -20 l17 -29 -6 30 c-5 28 -4 29 10 11 8 -11 15 -28 15 -39 0 -10 4 -16 9 -12 5 3 12 1 16 -5 3 -5 11 -10 17 -10 7 0 6 6 -2 15 -16 20 -8 19 48 -4 26 -10 62 -24 80 -31 17 -7 32 -16 32 -21 0 -5 7 -9 16 -9 8 0 12 5 9 10 -3 6 -2 10 4 10 5 0 14 -8 20 -17 5 -10 15 -18 23 -19 7 0 27 -2 43 -3 30 -2 30 -2 6 -12 -13 -5 -21 -12 -18 -15 3 -3 22 2 42 11 19 10 39 15 42 11 3 -3 1 -6 -5 -6 -6 0 -26 -9 -44 -21 -28 -17 -29 -19 -8 -14 20 6 23 5 13 -6 -23 -23 -14 -31 13 -10 14 11 32 17 40 14 10 -4 12 0 8 11 -3 9 -1 16 6 16 6 0 8 -5 4 -12 -5 -8 -1 -9 12 -5 13 5 10 0 -9 -16 -19 -16 -26 -29 -21 -40 9 -25 26 -20 19 6 -5 20 -5 20 7 6 12 -14 17 -15 31 -4 20 14 6 31 -15 20 -7 -4 -5 0 4 8 10 8 15 17 11 20 -3 4 1 7 10 7 20 0 31 -17 15 -23 -8 -3 -5 -6 5 -6 10 -1 27 4 37 9 16 9 18 8 13 -7 -5 -12 -2 -15 10 -10 9 3 17 3 17 -1 0 -4 9 -8 19 -8 11 0 17 4 15 8 -6 10 -1 10 21 2 13 -5 14 -8 3 -15 -10 -7 -9 -9 5 -9 9 0 17 4 17 10 0 5 16 9 35 8 19 -1 35 -3 35 -6 0 -2 -9 -16 -20 -32 -11 -15 -16 -31 -12 -35 4 -5 2 -5 -5 -1 -7 4 -17 -2 -23 -14 -8 -16 -8 -20 4 -20 19 0 57 49 50 64 -3 6 1 3 9 -6 8 -10 18 -14 23 -10 4 4 2 -1 -5 -10 -7 -10 -16 -16 -20 -14 -4 3 -13 -5 -20 -17 -10 -17 -10 -19 -1 -10 9 8 19 9 32 2 18 -10 18 -11 1 -39 -9 -17 -24 -30 -33 -31 -10 0 -9 -3 5 -8 14 -6 22 -4 25 6 3 8 8 13 11 11 2 -2 17 7 32 19 16 12 35 19 43 16 19 -7 8 -18 -17 -18 -10 0 -18 -4 -18 -8 0 -5 -26 -25 -58 -45 -71 -43 -68 -41 -61 -48 4 -3 19 1 36 10 34 17 46 12 31 -15 -11 -22 3 -26 20 -5 6 7 9 21 5 30 -4 10 -1 16 7 16 8 0 15 -11 15 -25 1 -14 -2 -22 -7 -19 -5 3 -9 1 -9 -5 0 -6 -10 -15 -21 -22 -17 -9 -23 -8 -30 2 -6 10 -9 8 -9 -8 0 -13 -5 -23 -11 -23 -5 0 -7 5 -3 11 4 7 1 10 -7 7 -8 -3 -14 -16 -15 -29 -1 -42 -3 -48 -26 -69 -30 -27 -14 -25 25 4 43 31 62 41 54 29 -3 -5 -7 -35 -8 -67 -1 -31 -6 -59 -11 -62 -4 -3 -8 2 -8 11 0 12 -5 15 -17 10 -46 -19 -55 -15 -20 9 49 35 47 42 -5 14 -53 -30 -88 -58 -88 -74 0 -6 -8 -18 -17 -25 -15 -13 -16 -12 -11 9 4 12 3 20 -2 17 -13 -8 -19 22 -7 35 7 7 0 5 -15 -5 -30 -18 -37 -28 -15 -19 8 3 14 -2 14 -11 0 -9 -6 -14 -14 -11 -8 3 -12 2 -8 -3 3 -5 -1 -12 -7 -15 -7 -3 -1 -4 14 -1 21 4 26 1 23 -13 -2 -9 -4 -23 -4 -30 -1 -7 -5 -11 -11 -7 -5 3 -7 12 -3 20 3 11 1 13 -10 9 -8 -3 -18 -17 -22 -32 -7 -29 -32 -62 -48 -62 -5 0 -7 7 -3 15 3 8 -1 21 -9 29 -8 7 -11 16 -8 20 4 3 1 6 -5 6 -6 0 -9 7 -5 16 5 14 3 15 -18 3 -13 -7 -19 -14 -12 -16 7 -3 9 -11 6 -19 -3 -9 1 -14 13 -14 16 0 15 -2 -5 -16 -16 -12 -20 -19 -11 -24 7 -5 9 -13 5 -21 -11 -17 -23 14 -24 59 -2 58 -41 35 -41 -23 0 -13 -4 -27 -10 -30 -10 -6 -13 8 -13 58 0 18 -5 27 -16 27 -25 0 -44 -16 -36 -29 5 -9 11 -7 21 6 12 16 13 16 14 2 0 -9 -7 -22 -15 -29 -8 -7 -15 -9 -15 -4 0 5 -8 0 -16 -11 -15 -20 -16 -19 -14 5 3 38 0 47 -10 25 -8 -19 -9 -19 -9 2 -1 27 9 54 18 49 4 -3 7 4 7 15 0 19 -1 18 -17 -3 -10 -12 -20 -35 -23 -50 -3 -15 -10 -28 -15 -28 -6 0 -8 6 -5 13 2 7 -4 21 -15 31 -11 10 -18 23 -14 29 4 6 0 8 -11 4 -14 -6 -16 -3 -11 13 4 12 2 20 -5 20 -6 0 -9 -4 -6 -9 3 -5 -3 -20 -14 -34 -11 -14 -20 -29 -20 -34 0 -4 5 -1 11 7 8 12 10 12 7 1 -2 -8 -11 -15 -20 -17 -11 -1 -15 3 -11 14 7 16 6 16 -44 -5 -7 -3 -13 0 -13 6 0 6 7 11 15 11 8 0 15 5 15 10 0 6 -4 10 -8 10 -5 0 -17 9 -29 19 -20 19 -20 19 -33 -15 -8 -19 -18 -34 -22 -34 -5 0 -6 5 -3 10 4 6 11 25 15 43 9 29 8 30 -5 12 -30 -42 -34 -45 -60 -35 -17 6 -25 6 -25 -1 0 -6 -4 -8 -9 -5 -5 3 -7 14 -5 24 3 11 -10 26 -39 46 -29 20 -37 23 -24 8 18 -19 18 -22 2 -46 -20 -30 -30 -35 -15 -7 13 25 13 41 -1 18 -6 -9 -15 -15 -20 -12 -5 4 -7 11 -4 16 4 5 1 9 -5 9 -7 0 -9 8 -5 20 4 11 2 20 -4 20 -6 0 -10 -6 -8 -12 1 -8 -7 -12 -20 -11 -16 2 -21 -2 -17 -12 4 -8 3 -15 0 -15 -4 0 -11 11 -16 25 -12 31 -33 33 -26 3 3 -13 -1 -8 -9 10 -9 18 -13 38 -9 44 8 12 -48 -22 -57 -36 -12 -17 -28 31 -24 70 4 33 4 35 -4 12 -15 -44 -22 -52 -33 -37 -6 9 -7 1 -3 -23 4 -29 3 -38 -8 -38 -8 0 -17 7 -21 15 -9 24 -26 17 -26 -10 0 -15 -6 -25 -15 -25 -15 0 -11 23 9 49 13 17 17 71 5 71 -5 0 -8 -3 -7 -7 2 -10 -9 -38 -28 -78 l-15 -30 5 35 c2 19 7 44 11 55 6 18 5 18 -5 3 -6 -10 -18 -18 -25 -18 -8 0 -15 -9 -15 -20 0 -26 -26 -16 -35 13 -4 14 -8 17 -12 9 -3 -7 2 -21 12 -32 9 -10 12 -20 8 -23 -11 -7 -25 3 -40 28 -6 11 -17 19 -23 17 -8 -2 -11 7 -8 28 5 32 4 33 -29 24 -18 -5 -21 -11 -17 -38 4 -22 3 -27 -4 -17 -6 8 -9 33 -8 57 1 42 -6 55 -19 34 -3 -5 -13 -10 -21 -10 -11 0 -13 13 -10 68 2 37 2 52 -1 34 -2 -18 -8 -30 -13 -27 -5 3 -12 -17 -16 -45 -4 -28 -11 -53 -17 -57 -5 -3 -7 -2 -4 4 4 6 0 19 -8 29 -12 16 -16 17 -24 4 -5 -8 -7 -18 -5 -22 3 -4 0 -8 -5 -8 -17 0 -13 18 9 40 12 12 18 25 15 30 -3 5 1 23 10 41 9 17 14 33 11 36 -9 9 -44 -39 -51 -69 -4 -15 -11 -31 -17 -34 -10 -7 -8 13 8 63 5 16 4 16 -11 -2 -17 -20 -17 -20 -11 5 7 24 6 24 -8 6 -23 -29 -19 -6 5 29 19 28 20 28 14 5 -7 -24 -7 -24 11 -7 18 17 18 19 2 28 -23 13 -33 12 -33 -3 0 -7 -5 -13 -12 -13 -6 0 -15 -3 -19 -7 -4 -5 -2 -8 5 -8 8 0 6 -8 -5 -26 -11 -16 -20 -22 -27 -15 -6 6 1 24 22 52 17 23 28 45 25 48 -3 3 -12 -3 -20 -13 -13 -19 -14 -19 -14 6 0 28 -25 45 -37 25 -4 -7 -8 -23 -9 -37 -2 -81 -5 -113 -9 -108 -3 3 -6 33 -7 66 -1 47 3 66 17 81 10 12 21 18 25 16 7 -5 40 37 40 50 0 4 -18 -8 -40 -25 -40 -32 -40 -32 -42 -8 0 12 -2 28 -3 33 -2 6 -3 14 -4 18 0 4 -9 3 -20 -2 -17 -10 -17 -9 -2 23 9 19 21 31 26 28 6 -3 7 -2 3 3 -4 4 -2 15 5 23 9 13 9 14 0 8 -12 -6 -18 5 -14 27 2 13 -16 7 -43 -14 -23 -18 -25 -19 -19 -2 3 10 13 26 21 36 8 9 11 17 6 17 -5 0 -3 4 4 9 11 6 10 10 -3 15 -14 5 -16 2 -12 -13 3 -12 -1 -22 -10 -25 -10 -4 -13 -2 -10 7 3 8 1 20 -3 27 -7 11 -11 11 -24 1 -9 -8 -16 -11 -16 -8 0 3 -3 14 -6 24 -4 14 -3 15 4 4 8 -11 13 -10 30 7 17 17 23 18 32 7 7 -8 22 -11 38 -8 15 3 33 6 39 6 32 1 -2 11 -40 11 -37 1 -42 4 -40 22 2 18 -2 21 -20 16 -12 -3 -16 -7 -9 -10 18 -6 -5 -32 -27 -32 -14 1 -14 2 2 11 9 6 14 15 11 21 -9 15 16 28 54 28 20 0 31 4 27 10 -3 6 1 10 9 10 26 0 65 22 71 41 8 24 60 41 60 20 0 -5 3 -13 7 -16 4 -4 5 5 2 21 -3 16 -2 25 2 22 3 -4 19 -1 35 8 17 8 29 10 29 4 0 -15 16 -12 34 5 18 18 82 20 89 3 4 -10 7 -10 15 0 5 7 17 10 28 7 18 -6 18 -6 1 8 -23 19 -15 21 81 25 73 2 78 1 101 -25z m2361 -17 c0 -2 -7 -9 -15 -16 -13 -11 -14 -10 -9 4 5 14 24 23 24 12z m41 -50 c8 4 9 3 5 -5 -4 -6 -12 -8 -18 -5 -6 4 -8 -1 -3 -15 9 -30 -1 -26 -17 7 -10 20 -11 31 -4 39 8 7 13 5 18 -9 5 -11 13 -16 19 -12z m-2000 -36 l-10 -25 0 27 c-1 14 2 35 6 45 7 17 8 17 11 -2 1 -12 -2 -32 -7 -45z m2114 40 c0 -7 -6 -15 -12 -17 -8 -3 -13 4 -13 17 0 13 5 20 13 18 6 -3 12 -11 12 -18z m26 -17 c-8 -15 -10 -15 -11 -2 0 17 10 32 18 25 2 -3 -1 -13 -7 -23z m-1127 1 c3 -8 2 -12 -4 -9 -6 3 -10 10 -10 16 0 14 7 11 14 -7z m129 -27 c9 -23 17 -52 17 -65 l0 -22 25 22 c14 12 25 28 25 37 0 10 3 12 10 5 12 -12 2 -47 -11 -38 -5 3 -6 -8 -3 -24 4 -18 1 -32 -6 -37 -16 -10 -26 3 -12 17 19 19 14 29 -8 16 -11 -7 -18 -17 -16 -23 2 -5 -1 -18 -6 -27 -7 -14 -5 -16 9 -11 16 5 15 3 -2 -16 -29 -30 -121 -62 -148 -51 -21 8 -21 9 3 10 14 0 32 5 40 11 16 11 -32 8 -95 -6 -23 -5 -26 -4 -15 4 12 9 11 11 -8 11 -16 0 -21 -4 -16 -12 6 -9 3 -9 -9 1 -9 7 -24 11 -32 7 -30 -11 -5 12 30 28 19 9 35 23 35 30 0 8 7 16 15 20 10 4 15 20 15 54 0 61 8 70 32 35 22 -34 23 -59 3 -107 -19 -44 -12 -48 10 -5 12 22 15 49 12 100 -4 63 2 84 18 59 4 -6 11 -8 16 -5 5 4 9 0 9 -7 0 -10 3 -9 10 2 12 20 18 12 20 -30 3 -53 -1 -69 -10 -35 l-8 30 -1 -28 c0 -15 -8 -43 -16 -63 -9 -22 -10 -32 -3 -28 8 5 9 2 5 -9 -3 -10 -2 -17 3 -17 20 0 50 41 51 68 2 49 -3 95 -12 119 -16 42 6 24 24 -20z m1243 0 c-1 -12 -11 -23 -22 -25 -14 -2 -15 -1 -6 6 7 5 14 18 15 30 0 11 5 18 9 16 4 -3 6 -15 4 -27z m-344 1 c-7 -7 -12 -8 -12 -2 0 14 12 26 19 19 2 -3 -1 -11 -7 -17z m-1855 -30 c-3 -8 -6 -5 -6 6 -1 11 2 17 5 13 3 -3 4 -12 1 -19z m1893 18 c0 -2 -7 -6 -15 -10 -8 -3 -15 -1 -15 4 0 6 7 10 15 10 8 0 15 -2 15 -4z m-895 -15 c3 -5 1 -12 -5 -16 -5 -3 -10 1 -10 9 0 18 6 21 15 7z m95 4 c0 -12 -35 -75 -41 -75 -8 0 4 50 16 70 6 10 25 14 25 5z m80 -7 c0 -7 -9 -24 -20 -38 l-20 -25 10 29 c17 46 30 61 30 34z m917 -40 c-3 -8 -6 -5 -6 6 -1 11 2 17 5 13 3 -3 4 -12 1 -19z m-67 -18 c0 -5 -4 -10 -10 -10 -5 0 -10 5 -10 10 0 6 5 10 10 10 6 0 10 -4 10 -10z m-1110 -30 c-6 -12 -14 -19 -17 -17 -2 3 1 15 7 27 6 12 14 19 17 17 2 -3 -1 -15 -7 -27z m165 0 c-3 -5 -27 -24 -53 -42 -46 -30 -46 -30 -22 -4 13 15 36 33 50 40 32 18 32 18 25 6z m4 -36 c-13 -14 -39 -32 -58 -40 -53 -22 -51 -16 6 16 28 16 54 34 58 40 3 5 9 10 12 10 4 0 -4 -12 -18 -26z m-2248 -105 c-33 -33 -43 -28 -11 6 13 14 18 25 11 25 -7 0 -9 4 -6 10 4 6 11 5 19 -3 11 -10 9 -17 -13 -38z m1945 14 c-3 -4 -17 -8 -29 -10 -17 -2 -19 -1 -7 7 17 11 47 14 36 3z m-1996 -16 c0 -2 -12 -14 -27 -28 l-28 -24 24 28 c23 25 31 32 31 24z m1980 -62 c-7 -9 -15 -13 -19 -10 -3 3 1 10 9 15 21 14 24 12 10 -5z m-1970 -73 c-11 -23 -25 -42 -30 -42 -15 0 -12 26 5 40 8 7 15 18 15 25 0 11 20 26 27 20 2 -1 -6 -20 -17 -43z m2030 -36 c0 -3 -4 -8 -10 -11 -5 -3 -10 -1 -10 4 0 6 5 11 10 11 6 0 10 -2 10 -4z m-1850 -116 c-6 -11 -13 -20 -16 -20 -2 0 0 9 6 20 6 11 13 20 16 20 2 0 0 -9 -6 -20z m1757 -5 c0 -8 -4 -12 -9 -9 -5 3 -6 10 -3 15 9 13 12 11 12 -6z m-1600 -80 c-6 -19 -14 -35 -19 -35 -11 0 -10 13 2 44 15 40 30 32 17 -9z m-107 3 c0 -4 -4 -8 -9 -8 -6 0 -12 4 -15 8 -3 5 1 9 9 9 8 0 15 -4 15 -9z m473 -77 c3 -12 -3 -27 -13 -36 -16 -15 -17 -14 -6 20 6 19 12 35 12 35 1 0 4 -9 7 -19z m68 -54 c-5 -5 -16 -1 -25 8 -21 22 -21 41 1 24 13 -11 15 -11 9 -1 -4 7 -4 21 0 30 5 13 9 9 15 -18 4 -19 4 -39 0 -43z m-238 38 c-3 -9 -8 -14 -10 -11 -3 3 -2 9 2 15 9 16 15 13 8 -4z m1365 -30 c-2 -11 -7 -12 -18 -4 -11 8 -12 12 -2 16 6 2 13 12 13 21 1 15 2 15 6 0 2 -10 3 -25 1 -33z m47 34 c11 -16 1 -19 -13 -3 -7 8 -8 14 -3 14 5 0 13 -5 16 -11z m-957 -47 c6 -18 -15 -14 -22 4 -4 10 -1 14 6 12 6 -2 14 -10 16 -16z m172 -19 c-1 -5 -7 -19 -14 -32 -13 -23 -13 -23 -14 8 0 21 4 31 14 31 8 0 14 -3 14 -7z m146 -43 c15 -18 7 -40 -12 -33 -8 3 -11 9 -8 14 3 5 1 9 -5 9 -5 0 -15 -8 -21 -17 -10 -15 -11 -14 -6 7 3 14 6 33 6 44 0 16 2 17 18 5 9 -8 22 -21 28 -29z m-356 20 c0 -5 -2 -10 -4 -10 -3 0 -8 5 -11 10 -3 6 -1 10 4 10 6 0 11 -4 11 -10z m87 -42 c-3 -8 -6 -5 -6 6 -1 11 2 17 5 13 3 -3 4 -12 1 -19z m386 -48 c-3 -11 -7 -20 -9 -20 -2 0 -4 9 -4 20 0 11 4 20 9 20 5 0 7 -9 4 -20z m-96 -32 c-3 -7 -5 -2 -5 12 0 14 2 19 5 13 2 -7 2 -19 0 -25z m1110 -110 c-3 -8 -6 -5 -6 6 -1 11 2 17 5 13 3 -3 4 -12 1 -19z m-87 -59 c0 -21 -17 -6 -33 29 l-17 37 25 -28 c14 -15 25 -32 25 -38z m-2583 5 c-3 -3 -12 -4 -19 -1 -8 3 -5 6 6 6 11 1 17 -2 13 -5z m124 -97 c-10 -9 -11 -8 -5 6 3 10 9 15 12 12 3 -3 0 -11 -7 -18z m1428 -411 c-9 -8 -10 -7 -5 7 3 10 7 28 7 40 2 16 3 14 6 -7 3 -16 -1 -34 -8 -40z m-719 33 c0 -6 -4 -7 -10 -4 -5 3 -10 11 -10 16 0 6 5 7 10 4 6 -3 10 -11 10 -16z" fill="#2b1d1b"/>
<path d="M2150 4271 c0 -5 7 -15 17 -22 15 -13 15 -12 4 9 -12 23 -21 28 -21 13z" fill="#2b1d1b"/>
<path d="M2710 3665 c0 -5 5 -17 10 -25 5 -8 10 -10 10 -5 0 6 -5 17 -10 25 -5 8 -10 11 -10 5z" fill="#2b1d1b"/>
<path d="M2002 3648 c-14 -14 -16 -38 -3 -38 5 0 11 11 13 25 6 29 6 29 -10 13z" fill="#2b1d1b"/>
<path d="M2560 3625 c-7 -9 -10 -18 -7 -21 3 -3 10 4 17 15 13 25 8 27 -10 6z" fill="#2b1d1b"/>
<path d="M2101 3602 c-17 -31 -13 -40 5 -14 9 13 14 26 11 29 -3 2 -10 -4 -16 -15z" fill="#2b1d1b"/>
<path d="M2134 3515 c3 -21 16 -31 16 -12 0 9 -4 18 -9 21 -5 4 -8 -1 -7 -9z" fill="#2b1d1b"/>
<path d="M1200 3666 c0 -2 8 -10 18 -17 15 -13 16 -12 3 4 -13 16 -21 21 -21 13z" fill="#2b1d1b"/>
<path d="M1335 3620 c22 -24 104 -50 154 -49 27 1 17 5 -43 19 -43 10 -81 22 -85 27 -3 5 -15 13 -25 17 -19 7 -19 6 -1 -14z" fill="#2b1d1b"/>
<path d="M1680 3565 c-14 -8 -20 -14 -14 -15 5 0 19 7 30 15 24 18 16 19 -16 0z" fill="#2b1d1b"/>
<path d="M3357 3489 c7 -7 15 -10 18 -7 3 3 -2 9 -12 12 -14 6 -15 5 -6 -5z" fill="#2b1d1b"/>
<path d="M3352 3380 c0 -14 2 -19 5 -12 2 6 2 18 0 25 -3 6 -5 1 -5 -13z" fill="#2b1d1b"/>
<path d="M1729 3323 c-13 -16 -12 -17 4 -4 9 7 17 15 17 17 0 8 -8 3 -21 -13z" fill="#2b1d1b"/>
<path d="M2106 3284 c-3 -8 -2 -12 4 -9 6 4 19 -14 30 -39 23 -55 33 -61 14 -8 -7 20 -13 45 -14 55 0 21 -26 23 -34 1z" fill="#2b1d1b"/>
<path d="M1250 3160 c-8 -5 -12 -12 -9 -15 4 -3 12 1 19 10 14 17 11 19 -10 5z" fill="#2b1d1b"/>
<path d="M1166 3075 c-11 -8 -15 -15 -9 -15 6 0 16 7 23 15 16 19 11 19 -14 0z" fill="#2b1d1b"/>
<path d="M1207 3063 c3 -7 6 -13 8 -13 1 0 7 6 13 13 8 10 6 13 -7 13 -11 0 -17 -6 -14 -13z" fill="#2b1d1b"/>
<path d="M1171 3051 c-8 -5 -9 -11 -3 -15 5 -3 12 1 16 9 6 17 6 18 -13 6z" fill="#2b1d1b"/>
<path d="M1278 2983 c-29 -34 -30 -48 -2 -21 15 15 26 30 23 33 -3 3 -13 -3 -21 -12z" fill="#2b1d1b"/>
<path d="M1270 2921 c-6 -12 -7 -21 -1 -21 10 0 24 30 17 37 -2 3 -9 -5 -16 -16z" fill="#2b1d1b"/>
<path d="M1260 2812 c-13 -10 -21 -23 -19 -29 2 -5 14 3 27 19 27 32 24 36 -8 10z" fill="#2b1d1b"/>
<path d="M1180 2789 c0 -5 5 -7 10 -4 6 3 10 8 10 11 0 2 -4 4 -10 4 -5 0 -10 -5 -10 -11z" fill="#2b1d1b"/>
<path d="M3100 2689 l-35 -30 38 26 c33 24 43 35 34 35 -1 0 -18 -14 -37 -31z" fill="#2b1d1b"/>
<path d="M3557 2643 c-8 -14 -19 -68 -13 -62 8 8 26 69 21 69 -2 0 -6 -3 -8 -7z" fill="#2b1d1b"/>
<path d="M1235 2580 c3 -5 8 -10 11 -10 2 0 4 5 4 10 0 6 -5 10 -11 10 -5 0 -7 -4 -4 -10z" fill="#2b1d1b"/>
<path d="M3606 2575 c-3 -9 -6 -22 -5 -28 0 -7 5 -1 10 12 5 13 8 26 5 28 -2 2 -6 -3 -10 -12z" fill="#2b1d1b"/>
<path d="M1200 2560 c0 -5 5 -10 11 -10 5 0 7 5 4 10 -3 6 -8 10 -11 10 -2 0 -4 -4 -4 -10z" fill="#2b1d1b"/>
<path d="M3571 2563 c-1 -6 -8 -19 -17 -27 -8 -9 -11 -16 -6 -16 15 0 34 28 29 42 -4 9 -6 9 -6 1z" fill="#2b1d1b"/>
<path d="M1090 2549 c0 -5 5 -7 10 -4 6 3 10 8 10 11 0 2 -4 4 -10 4 -5 0 -10 -5 -10 -11z" fill="#2b1d1b"/>
<path d="M1229 2463 c4 -16 6 -34 4 -40 -3 -7 1 -13 7 -13 8 0 10 8 6 23 -3 12 -6 30 -6 40 0 9 -4 17 -9 17 -6 0 -6 -12 -2 -27z" fill="#2b1d1b"/>
<path d="M1185 2411 c-3 -6 -1 -11 5 -11 6 0 9 -4 6 -9 -7 -11 3 -41 14 -41 5 0 5 14 0 31 -11 38 -16 44 -25 30z" fill="#2b1d1b"/>
<path d="M3080 2399 c0 -5 5 -7 10 -4 6 3 10 8 10 11 0 2 -4 4 -10 4 -5 0 -10 -5 -10 -11z" fill="#2b1d1b"/>
<path d="M1725 2304 c-16 -3 -39 -9 -50 -14 -11 -5 -27 -11 -35 -14 -8 -3 12 -3 45 2 33 4 93 7 133 7 39 0 72 3 72 8 0 4 -15 7 -32 7 -18 0 -49 2 -68 4 -19 2 -48 2 -65 0z" fill="#2b1d1b"/>
<path d="M2920 2300 c-8 -5 -11 -12 -7 -16 4 -4 13 -2 19 4 15 15 7 24 -12 12z" fill="#2b1d1b"/>
<path d="M1483 2257 c-24 -5 -43 -14 -43 -19 0 -4 10 -6 23 -3 147 34 144 33 102 33 -22 0 -59 -5 -82 -11z" fill="#2b1d1b"/>
<path d="M1410 2230 c-13 -8 -12 -10 3 -10 9 0 17 5 17 10 0 12 -1 12 -20 0z" fill="#2b1d1b"/>
<path d="M2142 2150 c0 -14 2 -19 5 -12 2 6 2 18 0 25 -3 6 -5 1 -5 -13z" fill="#2b1d1b"/>
<path d="M1148 2076 c-3 -15 -2 -29 2 -31 11 -7 19 30 10 45 -5 7 -9 2 -12 -14z" fill="#2b1d1b"/>
<path d="M1645 2081 c-3 -5 -1 -12 5 -16 5 -3 10 1 10 9 0 18 -6 21 -15 7z" fill="#2b1d1b"/>
<path d="M2116 2074 c-17 -12 -17 -14 -4 -14 9 0 20 5 23 11 11 17 2 18 -19 3z" fill="#2b1d1b"/>
<path d="M1202 2050 c0 -14 2 -19 5 -12 2 6 2 18 0 25 -3 6 -5 1 -5 -13z" fill="#2b1d1b"/>
<path d="M2722 2030 c-5 -14 -17 -42 -26 -64 -9 -21 -16 -44 -16 -50 1 -19 40 35 40 56 0 11 5 28 11 39 6 11 8 25 6 32 -3 7 -9 1 -15 -13z" fill="#2b1d1b"/>
<path d="M2611 2000 c-15 -35 -10 -48 8 -26 7 8 11 24 9 36 -3 18 -5 17 -17 -10z" fill="#2b1d1b"/>
<path d="M2950 1981 c0 -5 5 -13 10 -16 6 -3 10 -2 10 4 0 5 -4 13 -10 16 -5 3 -10 2 -10 -4z" fill="#2b1d1b"/>
<path d="M2807 1935 c-9 -19 -15 -35 -12 -35 7 0 37 61 33 66 -3 2 -12 -12 -21 -31z" fill="#2b1d1b"/>
<path d="M2868 1917 c-4 -19 -1 -27 8 -27 15 0 16 6 5 35 -7 17 -8 17 -13 -8z" fill="#2b1d1b"/>
<path d="M3221 1884 c0 -11 3 -14 6 -6 3 7 2 16 -1 19 -3 4 -6 -2 -5 -13z" fill="#2b1d1b"/>
<path d="M2976 1864 c-10 -25 1 -29 14 -5 6 12 7 21 1 21 -5 0 -12 -7 -15 -16z" fill="#2b1d1b"/>
<path d="M3221 1844 c0 -11 3 -14 6 -6 3 7 2 16 -1 19 -3 4 -6 -2 -5 -13z" fill="#2b1d1b"/>
<path d="M2810 1830 c20 -13 33 -13 25 0 -3 6 -14 10 -23 10 -15 0 -15 -2 -2 -10z" fill="#2b1d1b"/>
<path d="M3199 1753 c-13 -16 -12 -17 4 -4 16 13 21 21 13 21 -2 0 -10 -8 -17 -17z" fill="#2b1d1b"/>
<path d="M3410 2418 c0 -4 4 -8 9 -8 6 0 12 4 15 8 3 5 -1 9 -9 9 -8 0 -15 -4 -15 -9z" fill="#2b1d1b"/>
<path d="M3406 2345 c-9 -26 -7 -32 5 -12 6 10 9 21 6 23 -2 3 -7 -2 -11 -11z" fill="#2b1d1b"/>
<path d="M3307 2292 c-20 -21 -22 -32 -6 -32 5 0 7 5 4 10 -3 6 -2 10 3 10 6 0 12 7 16 15 7 20 3 19 -17 -3z" fill="#2b1d1b"/>
<path d="M3575 2270 c-3 -5 -2 -10 4 -10 5 0 13 5 16 10 3 6 2 10 -4 10 -5 0 -13 -4 -16 -10z" fill="#2b1d1b"/>
<path d="M3654 2244 c-18 -14 -18 -15 4 -4 12 6 22 13 22 15 0 8 -5 6 -26 -11z" fill="#2b1d1b"/>
<path d="M3270 2230 c-6 -11 -8 -20 -6 -20 3 0 10 9 16 20 6 11 8 20 6 20 -3 0 -10 -9 -16 -20z" fill="#2b1d1b"/>
<path d="M3595 2220 c-10 -11 -16 -22 -14 -24 2 -2 12 7 22 20 22 29 17 32 -8 4z" fill="#2b1d1b"/>
<path d="M3319 2213 c-13 -16 -12 -17 4 -4 16 13 21 21 13 21 -2 0 -10 -8 -17 -17z" fill="#2b1d1b"/>
<path d="M3467 2223 c-10 -9 -9 -23 2 -23 5 0 11 7 15 15 5 15 -5 20 -17 8z" fill="#2b1d1b"/>
<path d="M3435 2191 c-9 -15 15 -25 28 -12 9 9 7 10 -7 5 -13 -5 -17 -4 -12 4 4 7 5 12 2 12 -3 0 -7 -4 -11 -9z" fill="#2b1d1b"/>
<path d="M3654 2176 c-3 -7 -1 -29 5 -47 10 -34 10 -33 9 14 -2 49 -5 57 -14 33z" fill="#2b1d1b"/>
<path d="M3713 2183 c-7 -2 -13 -11 -13 -19 0 -8 -4 -14 -10 -14 -5 0 -10 -5 -10 -11 0 -8 5 -8 15 1 8 7 16 10 16 6 1 -3 2 -10 3 -15 0 -5 5 -13 10 -18 5 -5 7 1 3 15 -3 14 1 26 11 33 15 10 15 10 0 5 -20 -6 -25 10 -5 17 6 3 8 5 2 5 -5 0 -16 -2 -22 -5z" fill="#2b1d1b"/>
<path d="M3399 2163 c-13 -16 -12 -17 4 -4 9 7 17 15 17 17 0 8 -8 3 -21 -13z" fill="#2b1d1b"/>
<path d="M4048 2160 c-9 -10 -19 -29 -22 -42 -7 -22 -6 -22 5 -3 6 11 21 30 32 43 11 12 16 22 11 21 -5 0 -16 -9 -26 -19z" fill="#2b1d1b"/>
<path d="M1805 2000 c3 -5 8 -10 11 -10 2 0 4 5 4 10 0 6 -5 10 -11 10 -5 0 -7 -4 -4 -10z" fill="#2b1d1b"/>
<path d="M1515 1870 c3 -5 8 -10 11 -10 2 0 4 5 4 10 0 6 -5 10 -11 10 -5 0 -7 -4 -4 -10z" fill="#2b1d1b"/>
<path d="M1400 1863 c0 -15 19 -37 26 -31 3 4 -1 14 -10 23 -9 9 -16 13 -16 8z" fill="#2b1d1b"/>
<path d="M1346 1839 c3 -5 14 -9 25 -9 10 0 19 4 19 9 0 5 -11 9 -25 9 -13 0 -22 -4 -19 -9z" fill="#2b1d1b"/>
<path d="M2986 1682 c-2 -4 -1 -13 3 -20 5 -9 12 -7 26 8 18 19 18 20 -3 20 -11 0 -23 -4 -26 -8z" fill="#2b1d1b"/>
<path d="M3154 1669 c-3 -6 -1 -16 5 -22 6 -6 11 -9 12 -6 0 2 2 12 4 22 4 19 -10 23 -21 6z" fill="#2b1d1b"/>
<path d="M2963 1652 c0 -12 5 -22 9 -22 11 0 10 12 -2 30 -7 12 -9 10 -7 -8z" fill="#2b1d1b"/>
<path d="M3063 1655 c0 -8 4 -12 9 -9 5 3 6 10 3 15 -9 13 -12 11 -12 -6z" fill="#2b1d1b"/>
<path d="M1424 1629 c-20 -22 -23 -28 -8 -19 18 11 50 50 41 50 -2 0 -16 -14 -33 -31z" fill="#2b1d1b"/>
<path d="M3126 1634 c-9 -23 -2 -28 13 -10 7 8 8 17 3 20 -6 3 -13 -1 -16 -10z" fill="#2b1d1b"/>
<path d="M3000 1616 c0 -23 16 -27 17 -5 1 10 -2 19 -8 19 -5 0 -9 -6 -9 -14z" fill="#2b1d1b"/>
<path d="M3070 1620 c-8 -5 -12 -12 -9 -15 4 -3 12 1 19 10 14 17 11 19 -10 5z" fill="#2b1d1b"/>
<path d="M3080 1569 c0 -5 5 -7 10 -4 6 3 10 8 10 11 0 2 -4 4 -10 4 -5 0 -10 -5 -10 -11z" fill="#2b1d1b"/>
<path d="M1474 1546 c-10 -8 -17 -16 -14 -19 3 -2 14 4 24 14 23 22 18 25 -10 5z" fill="#2b1d1b"/>
<path d="M1570 1369 c0 -5 5 -7 10 -4 6 3 10 8 10 11 0 2 -4 4 -10 4 -5 0 -10 -5 -10 -11z" fill="#2b1d1b"/>
<path d="M1860 1308 c0 -9 -6 -18 -12 -21 -8 -2 -9 -8 -4 -13 5 -5 11 -4 13 4 3 6 9 10 14 6 12 -7 11 7 -1 26 -8 13 -10 13 -10 -2z" fill="#2b1d1b"/>
<path d="M2342 1264 c10 -10 20 -16 22 -13 3 3 -5 11 -17 18 -21 13 -21 12 -5 -5z" fill="#2b1d1b"/>
<path d="M2113 1255 c0 -8 4 -12 9 -9 5 3 6 10 3 15 -9 13 -12 11 -12 -6z" fill="#2b1d1b"/>
<path d="M2297 1239 c7 -7 15 -10 18 -7 3 3 -2 9 -12 12 -14 6 -15 5 -6 -5z" fill="#2b1d1b"/>
<path d="M2291 1197 c-13 -21 -12 -21 5 -5 10 10 16 20 13 22 -3 3 -11 -5 -18 -17z" fill="#2b1d1b"/>
<path d="M2324 1182 c0 -10 8 -18 18 -18 16 0 16 2 1 18 -9 10 -17 18 -17 18 -1 0 -2 -8 -2 -18z" fill="#2b1d1b"/>
<path d="M2776 1154 c-15 -39 1 -73 20 -42 5 7 3 8 -6 3 -9 -6 -11 0 -5 24 7 33 1 42 -9 15z" fill="#2b1d1b"/>
<path d="M2520 1144 c8 -10 15 -20 16 -22 1 -2 5 1 8 7 4 5 -4 15 -16 22 -22 12 -22 11 -8 -7z" fill="#2b1d1b"/>
<path d="M2919 1141 c-24 -20 -24 -20 -2 -14 12 3 28 11 34 19 17 21 -5 17 -32 -5z" fill="#2b1d1b"/>
<path d="M2929 1115 c-1 -3 -3 -9 -4 -15 -1 -5 -3 -11 -5 -12 -9 -12 -5 -38 6 -38 8 0 15 6 15 13 1 6 3 22 4 35 2 18 -12 33 -16 17z" fill="#2b1d1b"/>
<path d="M3305 1760 c-10 -11 -13 -20 -8 -20 13 0 38 29 31 35 -3 3 -13 -4 -23 -15z" fill="#2b1d1b"/>
<path d="M2282 5828 c-23 -26 -72 -125 -72 -148 0 -8 11 11 24 43 13 31 36 73 50 92 31 40 30 46 -2 13z" fill="#2b1d1b"/>
<path d="M3849 3809 c-19 -16 -20 -18 -4 -10 34 17 51 31 39 31 -7 0 -22 -9 -35 -21z" fill="#2b1d1b"/>
<path d="M3960 3810 c-8 -5 -10 -10 -5 -10 6 0 17 5 25 10 8 5 11 10 5 10 -5 0 -17 -5 -25 -10z" fill="#2b1d1b"/>
<path d="M4188 3634 c-4 -5 5 -27 19 -49 23 -38 24 -38 18 -10 -4 16 -10 32 -14 35 -5 3 -10 12 -13 20 -2 8 -7 10 -10 4z" fill="#2b1d1b"/>
<path d="M3950 3519 c-19 -17 -26 -26 -15 -20 31 16 71 51 60 51 -5 0 -26 -14 -45 -31z" fill="#2b1d1b"/>
<path d="M600 3512 c0 -4 8 -16 16 -27 16 -20 16 -19 9 4 -6 18 -4 22 6 16 8 -5 10 -4 6 0 -9 11 -37 16 -37 7z" fill="#2b1d1b"/>
<path d="M3836 3335 c4 -8 8 -15 10 -15 2 0 4 7 4 15 0 8 -4 15 -10 15 -5 0 -7 -7 -4 -15z" fill="#2b1d1b"/>
<path d="M4170 3339 c0 -5 5 -7 10 -4 6 3 10 8 10 11 0 2 -4 4 -10 4 -5 0 -10 -5 -10 -11z" fill="#2b1d1b"/>
<path d="M420 3306 c0 -8 4 -17 9 -20 5 -4 7 3 4 14 -6 23 -13 26 -13 6z" fill="#2b1d1b"/>
<path d="M4183 3301 c0 -11 5 -18 9 -15 4 3 5 11 1 19 -7 21 -12 19 -10 -4z" fill="#2b1d1b"/>
<path d="M405 3246 c2 -22 9 -44 15 -50 7 -7 8 -2 1 19 -5 17 -12 39 -15 50 -3 11 -3 2 -1 -19z" fill="#2b1d1b"/>
<path d="M420 3269 c0 -4 7 -22 15 -40 8 -19 14 -27 14 -19 0 14 -28 72 -29 59z" fill="#2b1d1b"/>
<path d="M564 3221 c0 -11 5 -17 13 -14 10 4 11 9 2 19 -15 18 -15 18 -15 -5z" fill="#2b1d1b"/>
<path d="M596 3173 c-6 -14 -5 -15 5 -6 7 7 10 15 7 18 -3 3 -9 -2 -12 -12z" fill="#2b1d1b"/>
<path d="M3831 3164 c0 -11 3 -14 6 -6 3 7 2 16 -1 19 -3 4 -6 -2 -5 -13z" fill="#2b1d1b"/>
<path d="M3905 3169 c-11 -16 -1 -19 13 -3 7 8 8 14 3 14 -5 0 -13 -5 -16 -11z" fill="#2b1d1b"/>
<path d="M375 2986 c10 -14 19 -26 22 -26 7 0 -17 39 -28 46 -6 3 -3 -5 6 -20z" fill="#2b1d1b"/>
<path d="M415 2989 c-4 -6 -5 -12 -2 -15 2 -3 7 2 10 11 7 17 1 20 -8 4z" fill="#2b1d1b"/>
<path d="M653 2963 c4 -3 -1 -16 -10 -27 -18 -21 -18 -21 4 -2 20 16 23 36 6 36 -4 0 -3 -3 0 -7z" fill="#2b1d1b"/>
<path d="M1570 465 c0 -11 5 -27 10 -35 8 -12 10 -12 10 5 0 11 -5 27 -10 35 -8 12 -10 12 -10 -5z" fill="#2b1d1b"/>
<path d="M1628 387 c-6 -33 10 -107 24 -107 9 0 4 51 -10 105 l-9 30 -5 -28z" fill="#2b1d1b"/>
<path d="M1960 269 c0 -20 31 -111 37 -106 2 3 -5 31 -16 63 -11 33 -20 52 -21 43z" fill="#2b1d1b"/>
<path d="M2120 198 c0 -58 13 -92 23 -63 6 15 -10 115 -19 115 -2 0 -4 -24 -4 -52z" fill="#2b1d1b"/>
<path d="M2330 213 c0 -17 30 -152 39 -174 16 -42 26 6 11 54 -28 97 -50 148 -50 120z" fill="#2b1d1b"/>
<path d="M2442 100 c0 -14 2 -19 5 -12 2 6 2 18 0 25 -3 6 -5 1 -5 -13z" fill="#2b1d1b"/>
</g>
</svg>